<?xml version="1.0" encoding="UTF-8"?>
<svg width="28px" height="23px" viewBox="0 0 28 23" version="1.1" xmlns="http://www.w3.org/2000/svg" xmlns:xlink="http://www.w3.org/1999/xlink">
    <!-- Generator: Sketch 52.2 (67145) - http://www.bohemiancoding.com/sketch -->
    <title>光纤口</title>
    <desc>Created with Sketch.</desc>
    <defs>
        <linearGradient x1="0%" y1="6.80093851%" x2="100%" y2="100%" id="linearGradient-1">
            <stop stop-color="#757575" offset="0%"></stop>
            <stop stop-color="#C9C9C9" offset="27.645791%"></stop>
            <stop stop-color="#535252" offset="68.5099488%"></stop>
            <stop stop-color="#D4D4D4" offset="100%"></stop>
        </linearGradient>
        <rect id="path-2" x="0" y="0" width="26" height="20" rx="0.5"></rect>
        <filter x="-9.6%" y="-7.5%" width="119.2%" height="130.0%" filterUnits="objectBoundingBox" id="filter-3">
            <feMorphology radius="0.5" operator="erode" in="SourceAlpha" result="shadowSpreadOuter1"></feMorphology>
            <feOffset dx="0" dy="2" in="shadowSpreadOuter1" result="shadowOffsetOuter1"></feOffset>
            <feGaussianBlur stdDeviation="1" in="shadowOffsetOuter1" result="shadowBlurOuter1"></feGaussianBlur>
            <feComposite in="shadowBlurOuter1" in2="SourceAlpha" operator="out" result="shadowBlurOuter1"></feComposite>
            <feColorMatrix values="0 0 0 0 0.498963648   0 0 0 0 0.498963648   0 0 0 0 0.498963648  0 0 0 0.5 0" type="matrix" in="shadowBlurOuter1"></feColorMatrix>
        </filter>
        <linearGradient x1="50%" y1="0%" x2="60.4124259%" y2="94.0174905%" id="linearGradient-4">
            <stop stop-color="#202020" offset="0%"></stop>
            <stop stop-color="#272727" offset="25.5241566%"></stop>
            <stop stop-color="#2C2C2C" offset="49.4424768%"></stop>
            <stop stop-color="#232323" offset="66.9453494%"></stop>
            <stop stop-color="#0A0A0A" offset="100%"></stop>
        </linearGradient>
        <linearGradient x1="26.575958%" y1="2.80145668%" x2="87.5346539%" y2="100%" id="linearGradient-5">
            <stop stop-color="#000000" offset="0%"></stop>
            <stop stop-color="#222222" offset="100%"></stop>
        </linearGradient>
        <linearGradient x1="23.0708428%" y1="0%" x2="94.7920141%" y2="93.1302106%" id="linearGradient-6">
            <stop stop-color="#C1C1C1" offset="0%"></stop>
            <stop stop-color="#FFFFFF" offset="42.7990484%"></stop>
            <stop stop-color="#7D7D7D" offset="100%"></stop>
        </linearGradient>
        <path d="M4.06362112,4.70961612e-06 L15.9965902,1.67280726e-05 C17.0972282,1.67280726e-05 17.9910191,0.889325117 17.9965529,1.98994915 C18.0064173,3.95187816 18.0075663,5.14380116 18,5.56571816 C17.9852203,6.38987449 17.7423059,6.99972554 16.4815564,6.99972554 C12.3549847,6.99972554 8.22841307,6.99972554 4.1018414,6.99972554 L4.1018414,6.99972554 C3.22270428,6.99972554 2.51002284,6.2870441 2.51002284,5.40790698 C1.33547728,4.94411559 0.522001775,4.64232802 0.0695963279,4.50254427 C-0.0328357414,4.35791809 -0.0328357414,2.59445969 0.141638002,2.50189182 C0.25795383,2.4401799 1.05563084,2.09495498 2.53466904,1.46621707 L2.53466904,1.46621707 C2.5690168,0.646703995 3.24338856,4.70961612e-06 4.06362112,4.70961612e-06 Z" id="path-7"></path>
        <linearGradient x1="5.34935796%" y1="67.4632764%" x2="95.7282058%" y2="67.4632764%" id="linearGradient-9">
            <stop stop-color="#797979" stop-opacity="0" offset="0%"></stop>
            <stop stop-color="#A8A7A7" stop-opacity="0.761916893" offset="55.5071351%"></stop>
            <stop stop-color="#797979" stop-opacity="0.127236187" offset="100%"></stop>
        </linearGradient>
        <linearGradient x1="15.7460297%" y1="67.4632764%" x2="91.8949624%" y2="67.4632764%" id="linearGradient-10">
            <stop stop-color="#797979" stop-opacity="0.167657382" offset="0%"></stop>
            <stop stop-color="#BDBCBC" stop-opacity="0.707568439" offset="34.1505423%"></stop>
            <stop stop-color="#898989" offset="62.617985%"></stop>
            <stop stop-color="#909090" offset="78.0260486%"></stop>
            <stop stop-color="#797979" stop-opacity="0.148579031" offset="100%"></stop>
        </linearGradient>
        <linearGradient x1="8.97363328%" y1="59.4357179%" x2="34.5969355%" y2="19.9808162%" id="linearGradient-11">
            <stop stop-color="#797979" stop-opacity="0.23997962" offset="0%"></stop>
            <stop stop-color="#AFAFAF" stop-opacity="0.421846694" offset="55.8185613%"></stop>
            <stop stop-color="#797979" stop-opacity="0.358072917" offset="100%"></stop>
        </linearGradient>
        <path d="M4.06362112,4.70961612e-06 L15.9965902,1.67280726e-05 C17.0972282,1.67280726e-05 17.9910191,0.889325117 17.9965529,1.98994915 C18.0064173,3.95187816 18.0075663,5.14380116 18,5.56571816 C17.9852203,6.38987449 17.7423059,6.99972554 16.4815564,6.99972554 C12.3549847,6.99972554 8.22841307,6.99972554 4.1018414,6.99972554 L4.1018414,6.99972554 C3.22270428,6.99972554 2.51002284,6.2870441 2.51002284,5.40790698 C1.33547728,4.94411559 0.522001775,4.64232802 0.0695963279,4.50254427 C-0.0328357414,4.35791809 -0.0328357414,2.59445969 0.141638002,2.50189182 C0.25795383,2.4401799 1.05563084,2.09495498 2.53466904,1.46621707 L2.53466904,1.46621707 C2.5690168,0.646703995 3.24338856,4.70961612e-06 4.06362112,4.70961612e-06 Z" id="path-12"></path>
    </defs>
    <g id="14所-硬件" stroke="none" stroke-width="1" fill="none" fill-rule="evenodd">
        <g id="画板-copy" transform="translate(-83.000000, -405.000000)">
            <g id="光纤口" transform="translate(84.000000, 405.000000)">
                <g id="矩形-2">
                    <use fill="black" fill-opacity="1" filter="url(#filter-3)" xlink:href="#path-2"></use>
                    <rect stroke="#000000" stroke-width="1" stroke-linejoin="square" fill="url(#linearGradient-1)" fill-rule="evenodd" x="0.5" y="0.5" width="25" height="19" rx="0.5"></rect>
                </g>
                <g id="矩形" transform="translate(4.000000, 2.000000)">
                    <mask id="mask-8" fill="white">
                        <use xlink:href="#path-7"></use>
                    </mask>
                    <g id="Mask">
                        <path stroke="url(#linearGradient-5)" stroke-width="1" d="M0.380719082,2.94111324 C0.378979254,2.94200111 0.377398149,2.94282236 0.375976094,2.94357684 C0.380242258,2.94131341 0.384406149,2.93906636 0.388470577,2.93683494 Z M0.542309199,2.86679377 C0.540990102,2.87620863 0.539680008,2.886018 0.538387267,2.89619773 C0.51902125,3.04869605 0.506117775,3.26070437 0.501685934,3.49226398 C0.497446651,3.71376258 0.501308677,3.93737527 0.512132873,4.1107987 C0.512347892,4.1142437 0.512592544,4.11778456 0.51285695,4.12139457 C1.00149773,4.28772461 1.7267105,4.56103247 2.6936592,4.94285033 L3.01002284,5.06777246 L3.01002284,5.40790698 C3.01002284,6.01090172 3.49884666,6.49972554 4.1018414,6.49972554 C10.2916989,6.49972554 10.2916989,6.49972554 16.4815564,6.49972554 C17.30823,6.49972554 17.4868877,6.29241329 17.5000804,5.55675304 C17.5075472,5.14038284 17.5063992,3.9495463 17.4965593,1.99246306 C17.4924089,1.16699668 16.822067,0.500016728 15.9965897,0.500016728 L4.06362061,0.50000471 C3.51138685,0.50000471 3.05735562,0.935405018 3.03423045,1.48715488 L3.02100186,1.80277963 L2.73027801,1.9263661 C1.60608099,2.40426132 0.860798599,2.72491422 0.542309199,2.86679377 Z" stroke-linejoin="square" fill="url(#linearGradient-4)" fill-rule="evenodd"></path>
                        <use stroke="url(#linearGradient-6)" stroke-width="0.5" xlink:href="#path-7"></use>
                    </g>
                    <rect fill="url(#linearGradient-9)" mask="url(#mask-8)" x="2" y="6.88175676" width="11" height="1" rx="0.5"></rect>
                    <rect id="矩形-copy-52" fill="url(#linearGradient-10)" mask="url(#mask-8)" x="8" y="-0.118243243" width="9" height="1" rx="0.5"></rect>
                    <path d="M2.45183567,1.56997182 L3.61723174,1.48746073 L3.57113096,2.14673262 L2.24777211,2.17032877 L2.24777211,2.17032877 C2.10570226,2.04421094 2.09277059,1.82680187 2.21888842,1.68473202 C2.27856086,1.6175119 2.36217493,1.57631988 2.45183567,1.56997182 Z" id="矩形-copy-53" fill="url(#linearGradient-11)" mask="url(#mask-8)" transform="translate(2.874690, 1.828895) rotate(-4.000000) translate(-2.874690, -1.828895) "></path>
                </g>
                <g id="矩形-copy-62" transform="translate(13.500000, 14.500000) scale(1, -1) translate(-13.500000, -14.500000) translate(4.000000, 11.000000)">
                    <mask id="mask-13" fill="white">
                        <use xlink:href="#path-12"></use>
                    </mask>
                    <g id="Mask">
                        <path stroke="url(#linearGradient-5)" stroke-width="1" d="M0.380719082,2.94111324 C0.378979254,2.94200111 0.377398149,2.94282236 0.375976094,2.94357684 C0.380242258,2.94131341 0.384406149,2.93906636 0.388470577,2.93683494 Z M0.542309199,2.86679377 C0.540990102,2.87620863 0.539680008,2.886018 0.538387267,2.89619773 C0.51902125,3.04869605 0.506117775,3.26070437 0.501685934,3.49226398 C0.497446651,3.71376258 0.501308677,3.93737527 0.512132873,4.1107987 C0.512347892,4.1142437 0.512592544,4.11778456 0.51285695,4.12139457 C1.00149773,4.28772461 1.7267105,4.56103247 2.6936592,4.94285033 L3.01002284,5.06777246 L3.01002284,5.40790698 C3.01002284,6.01090172 3.49884666,6.49972554 4.1018414,6.49972554 C10.2916989,6.49972554 10.2916989,6.49972554 16.4815564,6.49972554 C17.30823,6.49972554 17.4868877,6.29241329 17.5000804,5.55675304 C17.5075472,5.14038284 17.5063992,3.9495463 17.4965593,1.99246306 C17.4924089,1.16699668 16.822067,0.500016728 15.9965897,0.500016728 L4.06362061,0.50000471 C3.51138685,0.50000471 3.05735562,0.935405018 3.03423045,1.48715488 L3.02100186,1.80277963 L2.73027801,1.9263661 C1.60608099,2.40426132 0.860798599,2.72491422 0.542309199,2.86679377 Z" stroke-linejoin="square" fill="url(#linearGradient-4)" fill-rule="evenodd"></path>
                        <use stroke="url(#linearGradient-6)" stroke-width="0.5" xlink:href="#path-12"></use>
                    </g>
                    <rect id="矩形" fill="url(#linearGradient-9)" mask="url(#mask-13)" x="2" y="6.88175676" width="11" height="1" rx="0.5"></rect>
                    <rect id="矩形-copy-52" fill="url(#linearGradient-10)" mask="url(#mask-13)" x="8" y="-0.118243243" width="9" height="1" rx="0.5"></rect>
                    <path d="M2.45183567,1.56997182 L3.61723174,1.48746073 L3.57113096,2.14673262 L2.24777211,2.17032877 L2.24777211,2.17032877 C2.10570226,2.04421094 2.09277059,1.82680187 2.21888842,1.68473202 C2.27856086,1.6175119 2.36217493,1.57631988 2.45183567,1.56997182 Z" id="矩形-copy-53" fill="url(#linearGradient-11)" mask="url(#mask-13)" transform="translate(2.874690, 1.828895) rotate(-4.000000) translate(-2.874690, -1.828895) "></path>
                </g>
            </g>
        </g>
    </g>
</svg>