<?xml version="1.0" encoding="utf-8"?>
<!-- Generator: Adobe Illustrator 15.0.0, SVG Export Plug-In . SVG Version: 6.00 Build 0)  -->
<!DOCTYPE svg PUBLIC "-//W3C//DTD SVG 1.1//EN" "http://www.w3.org/Graphics/SVG/1.1/DTD/svg11.dtd">
<svg version="1.1" id="图层_1" xmlns="http://www.w3.org/2000/svg" xmlns:xlink="http://www.w3.org/1999/xlink" x="0px" y="0px"
	 width="910px" height="489px" viewBox="0 0 910 489" enable-background="new 0 0 910 489" xml:space="preserve">
<filter  x="-0.3%" y="-0.6%" id="filter-7" height="101.1%" width="100.6%" filterUnits="objectBoundingBox">
	<feGaussianBlur  result="shadowBlurInner1" in="SourceAlpha" stdDeviation="1"></feGaussianBlur>
	<feOffset  dy="-2" dx="1" result="shadowOffsetInner1" in="shadowBlurInner1"></feOffset>
	<feComposite  k3="1" k2="-1" in2="SourceAlpha" result="shadowInnerInner1" in="shadowOffsetInner1" operator="arithmetic">
		</feComposite>
	
		<feColorMatrix  type="matrix" values="0 0 0 0 0.475419855   0 0 0 0 0.475419855   0 0 0 0 0.475419855  0 0 0 0.5 0" result="shadowMatrixInner1" in="shadowInnerInner1">
		</feColorMatrix>
	<feGaussianBlur  result="shadowBlurInner2" in="SourceAlpha" stdDeviation="1"></feGaussianBlur>
	<feOffset  dy="0" dx="-3" result="shadowOffsetInner2" in="shadowBlurInner2"></feOffset>
	<feComposite  k3="1" k2="-1" in2="SourceAlpha" result="shadowInnerInner2" in="shadowOffsetInner2" operator="arithmetic">
		</feComposite>
	
		<feColorMatrix  type="matrix" values="0 0 0 0 0.726456207   0 0 0 0 0.726456207   0 0 0 0 0.726456207  0 0 0 1 0" result="shadowMatrixInner2" in="shadowInnerInner2">
		</feColorMatrix>
	<feMerge>
		<feMergeNode  in="shadowMatrixInner1"></feMergeNode>
		<feMergeNode  in="shadowMatrixInner2"></feMergeNode>
	</feMerge>
</filter>
<filter  x="-0.3%" y="-0.6%" id="filter-4" height="101.1%" width="100.5%" filterUnits="objectBoundingBox">
	<feGaussianBlur  result="shadowBlurInner1" in="SourceAlpha" stdDeviation="1"></feGaussianBlur>
	<feOffset  dy="-2" dx="1" result="shadowOffsetInner1" in="shadowBlurInner1"></feOffset>
	<feComposite  k3="1" k2="-1" in2="SourceAlpha" result="shadowInnerInner1" in="shadowOffsetInner1" operator="arithmetic">
		</feComposite>
	
		<feColorMatrix  type="matrix" values="0 0 0 0 0.475419855   0 0 0 0 0.475419855   0 0 0 0 0.475419855  0 0 0 0.5 0" result="shadowMatrixInner1" in="shadowInnerInner1">
		</feColorMatrix>
	<feGaussianBlur  result="shadowBlurInner2" in="SourceAlpha" stdDeviation="1"></feGaussianBlur>
	<feOffset  dy="0" dx="-3" result="shadowOffsetInner2" in="shadowBlurInner2"></feOffset>
	<feComposite  k3="1" k2="-1" in2="SourceAlpha" result="shadowInnerInner2" in="shadowOffsetInner2" operator="arithmetic">
		</feComposite>
	
		<feColorMatrix  type="matrix" values="0 0 0 0 0.726456207   0 0 0 0 0.726456207   0 0 0 0 0.726456207  0 0 0 1 0" result="shadowMatrixInner2" in="shadowInnerInner2">
		</feColorMatrix>
	<feMerge>
		<feMergeNode  in="shadowMatrixInner1"></feMergeNode>
		<feMergeNode  in="shadowMatrixInner2"></feMergeNode>
	</feMerge>
</filter>
<filter  x="-525.0%" y="-0.7%" id="filter-24" height="102.6%" width="1150.0%" filterUnits="objectBoundingBox">
	<feOffset  dy="6" dx="0" result="shadowOffsetOuter1" in="SourceAlpha"></feOffset>
	<feGaussianBlur  result="shadowBlurOuter1" in="shadowOffsetOuter1" stdDeviation="2.5"></feGaussianBlur>
	<feColorMatrix  type="matrix" values="0 0 0 0 1   0 0 0 0 0.993390941   0 0 0 0 0.993390941  0 0 0 1 0" in="shadowBlurOuter1">
		</feColorMatrix>
</filter>
<filter  x="-375.0%" y="-1.8%" id="filter-22" height="103.6%" width="850.0%" filterUnits="objectBoundingBox">
	<feOffset  dy="0" dx="0" result="shadowOffsetOuter1" in="SourceAlpha"></feOffset>
	<feGaussianBlur  result="shadowBlurOuter1" in="shadowOffsetOuter1" stdDeviation="2.5"></feGaussianBlur>
	
		<feColorMatrix  type="matrix" values="0 0 0 0 0.93537415   0 0 0 0 0.93537415   0 0 0 0 0.93537415  0 0 0 1 0" in="shadowBlurOuter1">
		</feColorMatrix>
</filter>
<filter  x="-0.4%" y="-11.9%" id="filter-20" height="117.9%" width="100.7%" filterUnits="objectBoundingBox">
	<feGaussianBlur  result="shadowBlurInner1" in="SourceAlpha" stdDeviation="1"></feGaussianBlur>
	<feOffset  dy="2" dx="0" result="shadowOffsetInner1" in="shadowBlurInner1"></feOffset>
	<feComposite  k3="1" k2="-1" in2="SourceAlpha" result="shadowInnerInner1" in="shadowOffsetInner1" operator="arithmetic">
		</feComposite>
	
		<feColorMatrix  type="matrix" values="0 0 0 0 0.868276998   0 0 0 0 0.863737592   0 0 0 0 0.863737592  0 0 0 0.5 0" result="shadowMatrixInner1" in="shadowInnerInner1">
		</feColorMatrix>
	<feGaussianBlur  result="shadowBlurInner2" in="SourceAlpha" stdDeviation="0.5"></feGaussianBlur>
	<feOffset  dy="-2" dx="0" result="shadowOffsetInner2" in="shadowBlurInner2"></feOffset>
	<feComposite  k3="1" k2="-1" in2="SourceAlpha" result="shadowInnerInner2" in="shadowOffsetInner2" operator="arithmetic">
		</feComposite>
	
		<feColorMatrix  type="matrix" values="0 0 0 0 0.758397109   0 0 0 0 0.752980842   0 0 0 0 0.752980842  0 0 0 0.5 0" result="shadowMatrixInner2" in="shadowInnerInner2">
		</feColorMatrix>
	<feMerge>
		<feMergeNode  in="shadowMatrixInner1"></feMergeNode>
		<feMergeNode  in="shadowMatrixInner2"></feMergeNode>
	</feMerge>
</filter>
<filter  x="-0.2%" y="-9.0%" id="filter-19" height="111.9%" width="100.5%" filterUnits="objectBoundingBox">
	<feOffset  dy="-1" dx="0" result="shadowOffsetOuter1" in="SourceAlpha"></feOffset>
	<feGaussianBlur  result="shadowBlurOuter1" in="shadowOffsetOuter1" stdDeviation="0.5"></feGaussianBlur>
	
		<feColorMatrix  type="matrix" values="0 0 0 0 0.56029443   0 0 0 0 0.56029443   0 0 0 0 0.56029443  0 0 0 1 0" in="shadowBlurOuter1">
		</feColorMatrix>
</filter>
<filter  x="-375.0%" y="-1.8%" id="filter-16" height="103.6%" width="850.0%" filterUnits="objectBoundingBox">
	<feOffset  dy="0" dx="0" result="shadowOffsetOuter1" in="SourceAlpha"></feOffset>
	<feGaussianBlur  result="shadowBlurOuter1" in="shadowOffsetOuter1" stdDeviation="2.5"></feGaussianBlur>
	
		<feColorMatrix  type="matrix" values="0 0 0 0 0.909412202   0 0 0 0 0.881387781   0 0 0 0 0.881387781  0 0 0 1 0" in="shadowBlurOuter1">
		</feColorMatrix>
</filter>
<filter  x="-0.2%" y="-13.0%" id="filter-13" height="126.1%" width="100.5%" filterUnits="objectBoundingBox">
	<feOffset  dy="1" dx="0" result="shadowOffsetOuter1" in="SourceAlpha"></feOffset>
	<feGaussianBlur  result="shadowBlurOuter1" in="shadowOffsetOuter1" stdDeviation="0.5"></feGaussianBlur>
	
		<feColorMatrix  type="matrix" values="0 0 0 0 0.859348427   0 0 0 0 0.849210123   0 0 0 0 0.849210123  0 0 0 0.709352355 0" result="shadowMatrixOuter1" in="shadowBlurOuter1">
		</feColorMatrix>
	<feOffset  dy="-1" dx="0" result="shadowOffsetOuter2" in="SourceAlpha"></feOffset>
	<feGaussianBlur  result="shadowBlurOuter2" in="shadowOffsetOuter2" stdDeviation="0.5"></feGaussianBlur>
	
		<feColorMatrix  type="matrix" values="0 0 0 0 0.529443027   0 0 0 0 0.529443027   0 0 0 0 0.529443027  0 0 0 0.5 0" result="shadowMatrixOuter2" in="shadowBlurOuter2">
		</feColorMatrix>
	<feMerge>
		<feMergeNode  in="shadowMatrixOuter1"></feMergeNode>
		<feMergeNode  in="shadowMatrixOuter2"></feMergeNode>
	</feMerge>
</filter>
<filter  x="-0.2%" y="-3.6%" id="filter-10" height="107.3%" width="100.5%" filterUnits="objectBoundingBox">
	<feOffset  dy="-4" dx="0" result="shadowOffsetInner1" in="SourceAlpha"></feOffset>
	<feComposite  k3="1" k2="-1" in2="SourceAlpha" result="shadowInnerInner1" in="shadowOffsetInner1" operator="arithmetic">
		</feComposite>
	
		<feColorMatrix  type="matrix" values="0 0 0 0 0.307690264   0 0 0 0 0.307690264   0 0 0 0 0.307690264  0 0 0 1 0" in="shadowInnerInner1">
		</feColorMatrix>
</filter>
<title>机箱</title>
<desc>Created with Sketch.</desc>
<g id="_x31_4所-硬件">
	<g id="机箱图-" transform="translate(-42.000000, -59.000000)">
		<g id="机箱" transform="translate(42.000000, 59.000000)">
			
				<linearGradient id="矩形-copy_1_" gradientUnits="userSpaceOnUse" x1="149.8127" y1="639.6387" x2="149.8127" y2="640.6387" gradientTransform="matrix(840 0 0 -489 -125387.2031 313273)">
				<stop  offset="0" style="stop-color:#C6C6C6"/>
				<stop  offset="0.0839" style="stop-color:#B1B0B5"/>
				<stop  offset="0.9283" style="stop-color:#A9AAAC"/>
				<stop  offset="1" style="stop-color:#C8C8C8"/>
			</linearGradient>
			<path id="矩形-copy" fill="url(#矩形-copy_1_)" d="M38,0h834c1.656,0,3,1.343,3,3v483c0,1.657-1.344,3-3,3H38
				c-1.657,0-3-1.343-3-3V3C35,1.343,36.343,0,38,0z"/>
			<g id="矩形">
				<g>
					
						<linearGradient id="path-3_2_" gradientUnits="userSpaceOnUse" x1="149.3269" y1="640.1113" x2="150.3269" y2="640.1113" gradientTransform="matrix(910 0 0 -453 -135887.2188 290215)">
						<stop  offset="0" style="stop-color:#D5D5D5"/>
						<stop  offset="0.0588" style="stop-color:#B5B5B7"/>
						<stop  offset="0.6485" style="stop-color:#A7A7A9"/>
						<stop  offset="0.9545" style="stop-color:#AAABAC"/>
						<stop  offset="1" style="stop-color:#C7C7C7"/>
					</linearGradient>
					<path id="path-3" fill="url(#path-3_2_)" d="M3,18h904c1.656,0,3,1.343,3,3v447c0,1.657-1.344,3-3,3H3c-1.657,0-3-1.343-3-3V21
						C0,19.343,1.343,18,3,18z"/>
				</g>
				<g filter="url(#filter-4)">
					<path d="M3,18h904c1.656,0,3,1.343,3,3v447c0,1.657-1.344,3-3,3H3c-1.657,0-3-1.343-3-3V21C0,19.343,1.343,18,3,18z"/>
				</g>
			</g>
			<g id="矩形-copy-52">
				<g>
					
						<linearGradient id="path-6_2_" gradientUnits="userSpaceOnUse" x1="149.3127" y1="640.1113" x2="150.3127" y2="640.1113" gradientTransform="matrix(840 0 0 -453 -125387.2031 290215)">
						<stop  offset="0" style="stop-color:#F8F8F8"/>
						<stop  offset="0.0371" style="stop-color:#EAEAEA"/>
						<stop  offset="0.9545" style="stop-color:#EAEAEA"/>
						<stop  offset="1" style="stop-color:#FFFFFF"/>
					</linearGradient>
					<path id="path-6" fill="url(#path-6_2_)" d="M38,18h834c1.656,0,3,1.343,3,3v447c0,1.657-1.344,3-3,3H38c-1.657,0-3-1.343-3-3
						V21C35,19.343,36.343,18,38,18z"/>
				</g>
				<g filter="url(#filter-7)">
					<path d="M38,18h834c1.656,0,3,1.343,3,3v447c0,1.657-1.344,3-3,3H38c-1.657,0-3-1.343-3-3V21C35,19.343,36.343,18,38,18z"/>
				</g>
			</g>
			<g id="矩形-copy-2">
				<g>
					
						<linearGradient id="path-9_2_" gradientUnits="userSpaceOnUse" x1="149.3127" y1="637.2998" x2="150.3127" y2="637.2998" gradientTransform="matrix(840 0 0 -55 -125387.2031 35513.0313)">
						<stop  offset="0" style="stop-color:#2F2F2F"/>
						<stop  offset="0.5044" style="stop-color:#454545"/>
						<stop  offset="1" style="stop-color:#313131"/>
					</linearGradient>
					<path id="path-9" fill="url(#path-9_2_)" d="M35,434h840v52c0,1.657-1.344,3-3,3H38c-1.657,0-3-1.343-3-3V434z"/>
				</g>
				<g filter="url(#filter-10)">
					<path d="M35,434h840v52c0,1.657-1.344,3-3,3H38c-1.657,0-3-1.343-3-3V434z"/>
				</g>
			</g>
			<g id="矩形-copy-4">
				<g filter="url(#filter-13)">
					<path d="M38,448h834c1.656,0,3,1.343,3,3v17c0,1.657-1.344,3-3,3H38c-1.657,0-3-1.343-3-3v-17C35,449.343,36.343,448,38,448z"
						/>
				</g>
				<g>
					
						<linearGradient id="path-12_2_" gradientUnits="userSpaceOnUse" x1="149.3127" y1="632.8496" x2="150.3127" y2="632.8496" gradientTransform="matrix(840 0 0 -23 -125387.2031 15015.0469)">
						<stop  offset="0" style="stop-color:#3C3C3C"/>
						<stop  offset="0.4678" style="stop-color:#575757"/>
						<stop  offset="1" style="stop-color:#313131"/>
					</linearGradient>
					<path id="path-12_1_" fill="url(#path-12_2_)" d="M38,448h834c1.656,0,3,1.343,3,3v17c0,1.657-1.344,3-3,3H38
						c-1.657,0-3-1.343-3-3v-17C35,449.343,36.343,448,38,448z"/>
				</g>
			</g>
			<g id="分组" transform="translate(44.000000, 448.000000)">
				<path id="矩形_1_" fill="#050505" d="M2,0h30c1.104,0,2,0.896,2,2l0,0c0,1.104-0.896,2-2,2H2C0.896,4,0,3.104,0,2l0,0
					C0,0.896,0.896,0,2,0z"/>
				<path id="矩形-copy-5" fill="#050505" d="M40,0h30c1.104,0,2,0.896,2,2l0,0c0,1.104-0.896,2-2,2H40c-1.104,0-2-0.896-2-2l0,0
					C38,0.896,38.896,0,40,0z"/>
				<path id="矩形-copy-6" fill="#050505" d="M78,0h30c1.104,0,2,0.896,2,2l0,0c0,1.104-0.896,2-2,2H78c-1.104,0-2-0.896-2-2l0,0
					C76,0.896,76.896,0,78,0z"/>
				<path id="矩形-copy-7" fill="#050505" d="M116,0h30c1.104,0,2,0.896,2,2l0,0c0,1.104-0.896,2-2,2h-30c-1.104,0-2-0.896-2-2
					l0,0C114,0.896,114.896,0,116,0z"/>
				<path id="矩形-copy-8" fill="#050505" d="M154,0h30c1.104,0,2,0.896,2,2l0,0c0,1.104-0.896,2-2,2h-30c-1.104,0-2-0.896-2-2
					l0,0C152,0.896,152.896,0,154,0z"/>
				<path id="矩形-copy-9" fill="#050505" d="M192,0h30c1.104,0,2,0.896,2,2l0,0c0,1.104-0.896,2-2,2h-30c-1.104,0-2-0.896-2-2
					l0,0C190,0.896,190.896,0,192,0z"/>
				<path id="矩形-copy-10" fill="#050505" d="M230,0h30c1.104,0,2,0.896,2,2l0,0c0,1.104-0.896,2-2,2h-30c-1.104,0-2-0.896-2-2
					l0,0C228,0.896,228.896,0,230,0z"/>
				<path id="矩形-copy-56" fill="#050505" d="M268,0h30c1.104,0,2,0.896,2,2l0,0c0,1.104-0.896,2-2,2h-30c-1.105,0-2-0.896-2-2
					l0,0C266,0.896,266.895,0,268,0z"/>
				<path id="矩形-copy-57" fill="#050505" d="M306,0h30c1.104,0,2,0.896,2,2l0,0c0,1.104-0.896,2-2,2h-30c-1.105,0-2-0.896-2-2
					l0,0C304,0.896,304.895,0,306,0z"/>
			</g>
			<g id="分组-copy-2" transform="translate(474.000000, 448.000000)">
				<path id="矩形_2_" fill="#050505" d="M2,0h30c1.104,0,2,0.896,2,2l0,0c0,1.104-0.896,2-2,2H2C0.895,4,0,3.104,0,2l0,0
					C0,0.896,0.895,0,2,0z"/>
				<path id="矩形-copy-5_1_" fill="#050505" d="M40,0h30c1.104,0,2,0.896,2,2l0,0c0,1.104-0.896,2-2,2H40c-1.105,0-2-0.896-2-2
					l0,0C38,0.896,38.895,0,40,0z"/>
				<path id="矩形-copy-6_1_" fill="#050505" d="M78,0h30c1.104,0,2,0.896,2,2l0,0c0,1.104-0.896,2-2,2H78c-1.105,0-2-0.896-2-2
					l0,0C76,0.896,76.895,0,78,0z"/>
				<path id="矩形-copy-7_1_" fill="#050505" d="M116,0h30c1.104,0,2,0.896,2,2l0,0c0,1.104-0.896,2-2,2h-30c-1.105,0-2-0.896-2-2
					l0,0C114,0.896,114.895,0,116,0z"/>
				<path id="矩形-copy-8_1_" fill="#050505" d="M154,0h30c1.104,0,2,0.896,2,2l0,0c0,1.104-0.896,2-2,2h-30c-1.105,0-2-0.896-2-2
					l0,0C152,0.896,152.895,0,154,0z"/>
				<path id="矩形-copy-9_1_" fill="#050505" d="M192,0h30c1.104,0,2,0.896,2,2l0,0c0,1.104-0.896,2-2,2h-30c-1.105,0-2-0.896-2-2
					l0,0C190,0.896,190.895,0,192,0z"/>
				<path id="矩形-copy-32" fill="#050505" d="M268,0h30c1.104,0,2,0.896,2,2l0,0c0,1.104-0.896,2-2,2h-30c-1.105,0-2-0.896-2-2
					l0,0C266,0.896,266.895,0,268,0z"/>
				<path id="矩形-copy-10_1_" fill="#050505" d="M230,0h30c1.104,0,2,0.896,2,2l0,0c0,1.104-0.896,2-2,2h-30
					c-1.105,0-2-0.896-2-2l0,0C228,0.896,228.895,0,230,0z"/>
				<path id="矩形-copy-39" fill="#050505" d="M306,0h30c1.104,0,2,0.896,2,2l0,0c0,1.104-0.896,2-2,2h-30c-1.105,0-2-0.896-2-2
					l0,0C304,0.896,304.895,0,306,0z"/>
				<path id="矩形-copy-40" fill="#050505" d="M344,0h30c1.104,0,2,0.896,2,2l0,0c0,1.104-0.896,2-2,2h-30c-1.105,0-2-0.896-2-2
					l0,0C342,0.896,342.895,0,344,0z"/>
				<path id="矩形-copy-51" fill="#050505" d="M382,0h19v4h-19c-1.105,0-2-0.896-2-2l0,0C380,0.896,380.895,0,382,0z"/>
			</g>
			<g id="分组-2" transform="translate(54.000000, 457.000000)">
				<path id="矩形-copy-11" fill="#050505" d="M2,0h11c1.104,0,2,0.896,2,2l0,0c0,1.104-0.896,2-2,2H2C0.896,4,0,3.104,0,2l0,0
					C0,0.896,0.896,0,2,0z"/>
				<path id="矩形-copy-12" fill="#050505" d="M21,0h11c1.104,0,2,0.896,2,2l0,0c0,1.104-0.896,2-2,2H21c-1.104,0-2-0.896-2-2l0,0
					C19,0.896,19.896,0,21,0z"/>
				<path id="矩形-copy-13" fill="#050505" d="M40,0h11c1.104,0,2,0.896,2,2l0,0c0,1.104-0.896,2-2,2H40c-1.104,0-2-0.896-2-2l0,0
					C38,0.896,38.896,0,40,0z"/>
				<path id="矩形-copy-14" fill="#050505" d="M59,0h11c1.104,0,2,0.896,2,2l0,0c0,1.104-0.896,2-2,2H59c-1.104,0-2-0.896-2-2l0,0
					C57,0.896,57.896,0,59,0z"/>
				<path id="矩形-copy-15" fill="#050505" d="M79,0h11c1.104,0,2,0.896,2,2l0,0c0,1.104-0.896,2-2,2H79c-1.104,0-2-0.896-2-2l0,0
					C77,0.896,77.896,0,79,0z"/>
				<path id="矩形-copy-16" fill="#050505" d="M98,0h11c1.104,0,2,0.896,2,2l0,0c0,1.104-0.896,2-2,2H98c-1.104,0-2-0.896-2-2l0,0
					C96,0.896,96.896,0,98,0z"/>
				<path id="矩形-copy-17" fill="#050505" d="M117,0h11c1.104,0,2,0.896,2,2l0,0c0,1.104-0.896,2-2,2h-11c-1.104,0-2-0.896-2-2
					l0,0C115,0.896,115.896,0,117,0z"/>
				<path id="矩形-copy-18" fill="#050505" d="M136,0h11c1.104,0,2,0.896,2,2l0,0c0,1.104-0.896,2-2,2h-11c-1.104,0-2-0.896-2-2
					l0,0C134,0.896,134.896,0,136,0z"/>
				<path id="矩形-copy-19" fill="#050505" d="M155,0h11c1.104,0,2,0.896,2,2l0,0c0,1.104-0.896,2-2,2h-11c-1.104,0-2-0.896-2-2
					l0,0C153,0.896,153.896,0,155,0z"/>
				<path id="矩形-copy-20" fill="#050505" d="M174,0h11c1.104,0,2,0.896,2,2l0,0c0,1.104-0.896,2-2,2h-11c-1.104,0-2-0.896-2-2
					l0,0C172,0.896,172.896,0,174,0z"/>
				<path id="矩形-copy-21" fill="#050505" d="M194,0h11c1.104,0,2,0.896,2,2l0,0c0,1.104-0.896,2-2,2h-11c-1.104,0-2-0.896-2-2
					l0,0C192,0.896,192.896,0,194,0z"/>
				<path id="矩形-copy-22" fill="#050505" d="M213,0h11c1.104,0,2,0.896,2,2l0,0c0,1.104-0.896,2-2,2h-11c-1.104,0-2-0.896-2-2
					l0,0C211,0.896,211.896,0,213,0z"/>
				<path id="矩形-copy-23" fill="#050505" d="M232,0h11c1.104,0,2,0.896,2,2l0,0c0,1.104-0.896,2-2,2h-11c-1.104,0-2-0.896-2-2
					l0,0C230,0.896,230.896,0,232,0z"/>
				<path id="矩形-copy-58" fill="#050505" d="M270,0h11c1.104,0,2,0.896,2,2l0,0c0,1.104-0.896,2-2,2h-11c-1.105,0-2-0.896-2-2
					l0,0C268,0.896,268.895,0,270,0z"/>
				<path id="矩形-copy-24" fill="#050505" d="M251,0h11c1.104,0,2,0.896,2,2l0,0c0,1.104-0.896,2-2,2h-11c-1.105,0-2-0.896-2-2
					l0,0C249,0.896,249.895,0,251,0z"/>
				<path id="矩形-copy-59" fill="#050505" d="M289,0h11c1.104,0,2,0.896,2,2l0,0c0,1.104-0.896,2-2,2h-11c-1.105,0-2-0.896-2-2
					l0,0C287,0.896,287.895,0,289,0z"/>
			</g>
			<g id="分组-2-copy" transform="translate(485.000000, 457.000000)">
				<path id="矩形-copy-11_1_" fill="#050505" d="M2,0h11c1.104,0,2,0.896,2,2l0,0c0,1.104-0.896,2-2,2H2C0.895,4,0,3.104,0,2l0,0
					C0,0.896,0.895,0,2,0z"/>
				<path id="矩形-copy-12_1_" fill="#050505" d="M21,0h11c1.104,0,2,0.896,2,2l0,0c0,1.104-0.896,2-2,2H21c-1.105,0-2-0.896-2-2
					l0,0C19,0.896,19.895,0,21,0z"/>
				<path id="矩形-copy-13_1_" fill="#050505" d="M40,0h11c1.104,0,2,0.896,2,2l0,0c0,1.104-0.896,2-2,2H40c-1.105,0-2-0.896-2-2
					l0,0C38,0.896,38.895,0,40,0z"/>
				<path id="矩形-copy-14_1_" fill="#050505" d="M59,0h11c1.104,0,2,0.896,2,2l0,0c0,1.104-0.896,2-2,2H59c-1.105,0-2-0.896-2-2
					l0,0C57,0.896,57.895,0,59,0z"/>
				<path id="矩形-copy-15_1_" fill="#050505" d="M79,0h11c1.104,0,2,0.896,2,2l0,0c0,1.104-0.896,2-2,2H79c-1.105,0-2-0.896-2-2
					l0,0C77,0.896,77.895,0,79,0z"/>
				<path id="矩形-copy-16_1_" fill="#050505" d="M98,0h11c1.104,0,2,0.896,2,2l0,0c0,1.104-0.896,2-2,2H98c-1.105,0-2-0.896-2-2
					l0,0C96,0.896,96.895,0,98,0z"/>
				<path id="矩形-copy-17_1_" fill="#050505" d="M117,0h11c1.104,0,2,0.896,2,2l0,0c0,1.104-0.896,2-2,2h-11
					c-1.105,0-2-0.896-2-2l0,0C115,0.896,115.895,0,117,0z"/>
				<path id="矩形-copy-18_1_" fill="#050505" d="M136,0h11c1.104,0,2,0.896,2,2l0,0c0,1.104-0.896,2-2,2h-11
					c-1.105,0-2-0.896-2-2l0,0C134,0.896,134.895,0,136,0z"/>
				<path id="矩形-copy-19_1_" fill="#050505" d="M155,0h11c1.104,0,2,0.896,2,2l0,0c0,1.104-0.896,2-2,2h-11
					c-1.105,0-2-0.896-2-2l0,0C153,0.896,153.895,0,155,0z"/>
				<path id="矩形-copy-20_1_" fill="#050505" d="M174,0h11c1.104,0,2,0.896,2,2l0,0c0,1.104-0.896,2-2,2h-11
					c-1.105,0-2-0.896-2-2l0,0C172,0.896,172.895,0,174,0z"/>
				<path id="矩形-copy-21_1_" fill="#050505" d="M194,0h11c1.104,0,2,0.896,2,2l0,0c0,1.104-0.896,2-2,2h-11
					c-1.105,0-2-0.896-2-2l0,0C192,0.896,192.895,0,194,0z"/>
				<path id="矩形-copy-41" fill="#050505" d="M270,0h11c1.104,0,2,0.896,2,2l0,0c0,1.104-0.896,2-2,2h-11c-1.105,0-2-0.896-2-2
					l0,0C268,0.896,268.895,0,270,0z"/>
				<path id="矩形-copy-22_1_" fill="#050505" d="M213,0h11c1.104,0,2,0.896,2,2l0,0c0,1.104-0.896,2-2,2h-11
					c-1.105,0-2-0.896-2-2l0,0C211,0.896,211.895,0,213,0z"/>
				<path id="矩形-copy-42" fill="#050505" d="M289,0h11c1.104,0,2,0.896,2,2l0,0c0,1.104-0.896,2-2,2h-11c-1.105,0-2-0.896-2-2
					l0,0C287,0.896,287.895,0,289,0z"/>
				<path id="矩形-copy-23_1_" fill="#050505" d="M232,0h11c1.104,0,2,0.896,2,2l0,0c0,1.104-0.896,2-2,2h-11
					c-1.105,0-2-0.896-2-2l0,0C230,0.896,230.895,0,232,0z"/>
				<path id="矩形-copy-43" fill="#050505" d="M308,0h11c1.104,0,2,0.896,2,2l0,0c0,1.104-0.896,2-2,2h-11c-1.105,0-2-0.896-2-2
					l0,0C306,0.896,306.895,0,308,0z"/>
				<path id="矩形-copy-45" fill="#050505" d="M346,0h11c1.104,0,2,0.896,2,2l0,0c0,1.104-0.896,2-2,2h-11c-1.105,0-2-0.896-2-2
					l0,0C344,0.896,344.895,0,346,0z"/>
				<path id="矩形-copy-24_1_" fill="#050505" d="M251,0h11c1.104,0,2,0.896,2,2l0,0c0,1.104-0.896,2-2,2h-11
					c-1.105,0-2-0.896-2-2l0,0C249,0.896,249.895,0,251,0z"/>
				<path id="矩形-copy-44" fill="#050505" d="M327,0h11c1.104,0,2,0.896,2,2l0,0c0,1.104-0.896,2-2,2h-11c-1.105,0-2-0.896-2-2
					l0,0C325,0.896,325.895,0,327,0z"/>
				<path id="矩形-copy-46" fill="#050505" d="M365,0h11c1.104,0,2,0.896,2,2l0,0c0,1.104-0.896,2-2,2h-11c-1.105,0-2-0.896-2-2
					l0,0C363,0.896,363.895,0,365,0z"/>
				<path id="矩形-copy-55" fill="#050505" d="M384,0h6v4h-6c-1.105,0-2-0.896-2-2l0,0C382,0.896,382.895,0,384,0z"/>
			</g>
			<g id="分组-copy" transform="translate(44.000000, 466.000000)">
				<path id="矩形_3_" fill="#050505" d="M2,0h30c1.104,0,2,0.896,2,2l0,0c0,1.104-0.896,2-2,2H2C0.896,4,0,3.104,0,2l0,0
					C0,0.896,0.896,0,2,0z"/>
				<path id="矩形-copy-5_2_" fill="#050505" d="M40,0h30c1.104,0,2,0.896,2,2l0,0c0,1.104-0.896,2-2,2H40c-1.104,0-2-0.896-2-2
					l0,0C38,0.896,38.896,0,40,0z"/>
				<path id="矩形-copy-6_2_" fill="#050505" d="M78,0h30c1.104,0,2,0.896,2,2l0,0c0,1.104-0.896,2-2,2H78c-1.104,0-2-0.896-2-2
					l0,0C76,0.896,76.896,0,78,0z"/>
				<path id="矩形-copy-7_2_" fill="#050505" d="M116,0h30c1.104,0,2,0.896,2,2l0,0c0,1.104-0.896,2-2,2h-30c-1.104,0-2-0.896-2-2
					l0,0C114,0.896,114.896,0,116,0z"/>
				<path id="矩形-copy-8_2_" fill="#050505" d="M154,0h30c1.104,0,2,0.896,2,2l0,0c0,1.104-0.896,2-2,2h-30c-1.104,0-2-0.896-2-2
					l0,0C152,0.896,152.896,0,154,0z"/>
				<path id="矩形-copy-9_2_" fill="#050505" d="M192,0h30c1.104,0,2,0.896,2,2l0,0c0,1.104-0.896,2-2,2h-30c-1.104,0-2-0.896-2-2
					l0,0C190,0.896,190.896,0,192,0z"/>
				<path id="矩形-copy-10_2_" fill="#050505" d="M230,0h30c1.104,0,2,0.896,2,2l0,0c0,1.104-0.896,2-2,2h-30
					c-1.104,0-2-0.896-2-2l0,0C228,0.896,228.896,0,230,0z"/>
				<path id="矩形-copy-60" fill="#050505" d="M268,0h30c1.104,0,2,0.896,2,2l0,0c0,1.104-0.896,2-2,2h-30c-1.105,0-2-0.896-2-2
					l0,0C266,0.896,266.895,0,268,0z"/>
				<path id="矩形-copy-61" fill="#050505" d="M306,0h30c1.104,0,2,0.896,2,2l0,0c0,1.104-0.896,2-2,2h-30c-1.105,0-2-0.896-2-2
					l0,0C304,0.896,304.895,0,306,0z"/>
			</g>
			<g id="分组-copy-3" transform="translate(473.000000, 466.000000)">
				<path id="矩形_4_" fill="#050505" d="M2,0h30c1.104,0,2,0.896,2,2l0,0c0,1.104-0.896,2-2,2H2C0.895,4,0,3.104,0,2l0,0
					C0,0.896,0.895,0,2,0z"/>
				<path id="矩形-copy-5_3_" fill="#050505" d="M40,0h30c1.104,0,2,0.896,2,2l0,0c0,1.104-0.896,2-2,2H40c-1.105,0-2-0.896-2-2
					l0,0C38,0.896,38.895,0,40,0z"/>
				<path id="矩形-copy-6_3_" fill="#050505" d="M78,0h30c1.104,0,2,0.896,2,2l0,0c0,1.104-0.896,2-2,2H78c-1.105,0-2-0.896-2-2
					l0,0C76,0.896,76.895,0,78,0z"/>
				<path id="矩形-copy-7_3_" fill="#050505" d="M116,0h30c1.104,0,2,0.896,2,2l0,0c0,1.104-0.896,2-2,2h-30c-1.105,0-2-0.896-2-2
					l0,0C114,0.896,114.895,0,116,0z"/>
				<path id="矩形-copy-8_3_" fill="#050505" d="M154,0h30c1.104,0,2,0.896,2,2l0,0c0,1.104-0.896,2-2,2h-30c-1.105,0-2-0.896-2-2
					l0,0C152,0.896,152.895,0,154,0z"/>
				<path id="矩形-copy-9_3_" fill="#050505" d="M192,0h30c1.104,0,2,0.896,2,2l0,0c0,1.104-0.896,2-2,2h-30c-1.105,0-2-0.896-2-2
					l0,0C190,0.896,190.895,0,192,0z"/>
				<path id="矩形-copy-47" fill="#050505" d="M268,0h30c1.104,0,2,0.896,2,2l0,0c0,1.104-0.896,2-2,2h-30c-1.105,0-2-0.896-2-2
					l0,0C266,0.896,266.895,0,268,0z"/>
				<path id="矩形-copy-10_3_" fill="#050505" d="M230,0h30c1.104,0,2,0.896,2,2l0,0c0,1.104-0.896,2-2,2h-30
					c-1.105,0-2-0.896-2-2l0,0C228,0.896,228.895,0,230,0z"/>
				<path id="矩形-copy-48" fill="#050505" d="M306,0h30c1.104,0,2,0.896,2,2l0,0c0,1.104-0.896,2-2,2h-30c-1.105,0-2-0.896-2-2
					l0,0C304,0.896,304.895,0,306,0z"/>
				<path id="矩形-copy-49" fill="#050505" d="M344,0h30c1.104,0,2,0.896,2,2l0,0c0,1.104-0.896,2-2,2h-30c-1.105,0-2-0.896-2-2
					l0,0C342,0.896,342.895,0,344,0z"/>
				<path id="矩形-copy-50" fill="#050505" d="M382,0h20v4h-20c-1.105,0-2-0.896-2-2l0,0C380,0.896,380.895,0,382,0z"/>
			</g>
			
				<linearGradient id="矩形-copy-3_1_" gradientUnits="userSpaceOnUse" x1="149.3005" y1="637.7744" x2="149.3005" y2="636.7744" gradientTransform="matrix(225.6485 0 0 -54.5511 -33232.5703 35225.3047)">
				<stop  offset="0" style="stop-color:#000000"/>
				<stop  offset="0.5044" style="stop-color:#343333"/>
				<stop  offset="1" style="stop-color:#000000"/>
			</linearGradient>
			<path id="矩形-copy-3" fill="url(#矩形-copy-3_1_)" d="M344,434h225.648l-40.065,53.353
				c-0.566,0.755-1.455,1.198-2.398,1.198H386.463c-0.943,0-1.832-0.443-2.398-1.198L344,434z"/>
			<rect id="矩形_5_" x="383" y="18" fill="#161612" width="4" height="382"/>
			<rect id="矩形-copy-28" x="453" y="18" fill="#161612" width="4" height="382"/>
			<rect id="矩形-copy-29" x="523" y="18" fill="#161612" width="4" height="382"/>
			<rect id="矩形-copy-30" x="593" y="18" fill="#161612" width="4" height="382"/>
			<rect id="矩形-copy-31" x="663" y="18" fill="#161612" width="4" height="382"/>
			<rect id="矩形-copy-36" x="733" y="18" fill="#161612" width="4" height="382"/>
			<rect id="矩形-copy-37" x="803" y="18" fill="#161612" width="4" height="382"/>
			<g id="矩形-copy-38">
				<g filter="url(#filter-16)">
					<rect x="873" y="18" width="2" height="416"/>
				</g>
				<g>
					<rect id="path-15_1_" x="873" y="18" fill="#161612" width="2" height="416"/>
				</g>
			</g>
			<rect id="矩形-copy-25" x="243" y="18" fill="#161612" width="4" height="382"/>
			<rect id="矩形-copy-27" x="313" y="18" fill="#161612" width="4" height="382"/>
			<rect id="矩形-copy-26" x="103" y="18" fill="#161612" width="4" height="382"/>
			<rect id="矩形-copy-34" x="173" y="18" fill="#161612" width="4" height="382"/>
			<g id="矩形_6_">
				<g filter="url(#filter-19)">
					<rect x="35" y="400" width="838" height="33.5"/>
				</g>
				<g>
					
						<linearGradient id="path-18_3_" gradientUnits="userSpaceOnUse" x1="150.2986" y1="635.248" x2="149.3259" y2="635.248" gradientTransform="matrix(838 0 0 -33.5 -125088.2031 21697.5313)">
						<stop  offset="0" style="stop-color:#B4B4B4"/>
						<stop  offset="0.4917" style="stop-color:#B3B3B3"/>
						<stop  offset="1" style="stop-color:#B4B4B4"/>
					</linearGradient>
					<rect id="path-18_1_" x="35" y="400" fill="url(#path-18_3_)" width="838" height="33.5"/>
				</g>
				<g filter="url(#filter-20)">
					<rect x="35" y="400" width="838" height="33.5"/>
				</g>
			</g>
			<g id="矩形-copy-33">
				<g filter="url(#filter-22)">
					<rect x="35" y="17" width="2" height="417"/>
				</g>
				<g>
					<rect id="path-21_1_" x="35" y="17" fill="#161612" width="2" height="417"/>
				</g>
			</g>
			<g id="分组-3" transform="translate(35.000000, 17.000000)">
				
					<g id="矩形-copy-35" transform="translate(420.000000, 1.000000) scale(-1, -1) rotate(-270.000000) translate(-420.000000, -1.000000) ">
					<g filter="url(#filter-24)">
						<polygon points="419,-419 421,-419 421,421 419,421 						"/>
					</g>
					<g>
						<polygon id="path-23_1_" fill="#161612" points="419,-419 421,-419 421,421 419,421 						"/>
					</g>
				</g>
			</g>
		</g>
	</g>
</g>
<rect x="35" y="19" fill="#FFFFFF" stroke="#000000" stroke-miterlimit="10" width="838" height="381"/>
</svg>
