<?xml version="1.0" encoding="UTF-8"?>
<svg width="78px" height="456px" viewBox="0 0 78 456" version="1.1" xmlns="http://www.w3.org/2000/svg" xmlns:xlink="http://www.w3.org/1999/xlink">
    <!-- Generator: Sketch 52.2 (67145) - http://www.bohemiancoding.com/sketch -->
    <title>板卡</title>
    <desc>Created with Sketch.</desc>
    <defs>
        <linearGradient x1="0%" y1="39.4770069%" x2="100%" y2="39.4770069%" id="linearGradient-1">
            <stop stop-color="#D5D5D5" offset="0%"></stop>
            <stop stop-color="#BBBBBB" offset="45.4633454%"></stop>
            <stop stop-color="#AAABAC" offset="95.4521502%"></stop>
            <stop stop-color="#C7C7C7" offset="100%"></stop>
        </linearGradient>
        <rect id="path-2" x="0" y="0" width="75" height="453" rx="3"></rect>
        <rect id="path-4" x="4" y="3" width="54" height="1"></rect>
        <filter x="-9.3%" y="-400.0%" width="118.5%" height="1100.0%" filterUnits="objectBoundingBox" id="filter-5">
            <feOffset dx="0" dy="1" in="SourceAlpha" result="shadowOffsetOuter1"></feOffset>
            <feGaussianBlur stdDeviation="1.5" in="shadowOffsetOuter1" result="shadowBlurOuter1"></feGaussianBlur>
            <feColorMatrix values="0 0 0 0 0.338222789   0 0 0 0 0.338222789   0 0 0 0 0.338222789  0 0 0 0.5 0" type="matrix" in="shadowBlurOuter1"></feColorMatrix>
        </filter>
        <linearGradient x1="27.3258364%" y1="3.39341399%" x2="50%" y2="94.3483116%" id="linearGradient-6">
            <stop stop-color="#909090" stop-opacity="0.312471694" offset="0%"></stop>
            <stop stop-color="#A8A8A8" stop-opacity="0.0421761775" offset="100%"></stop>
        </linearGradient>
        <linearGradient x1="100%" y1="50%" x2="1.99934219%" y2="50%" id="linearGradient-7">
            <stop stop-color="#2B292A" offset="0%"></stop>
            <stop stop-color="#2F2E2E" offset="11.3447566%"></stop>
            <stop stop-color="#CFCECE" offset="26.0553278%"></stop>
            <stop stop-color="#DDDBDB" offset="91.5250171%"></stop>
            <stop stop-color="#8C8C8C" offset="96.135944%"></stop>
            <stop stop-color="#AFAFAF" offset="100%"></stop>
        </linearGradient>
        <path d="M1,-1.76148234e-10 L31.9047659,8.43071215e-11 L67,8.4393654e-11 C67.4982461,6.75365151 67.4982461,13.0372451 67,18.8507808 C39.2433528,20.6877758 17.2220505,21.0849251 0.936093352,20.0422288 L0.936094196,20.0422156 C0.409700999,20.0085137 4.51221911e-11,19.571743 4.04110079e-11,19.0442721 L-1.38094647e-10,1 C-1.43026967e-10,0.44771525 0.44771525,-1.8857419e-10 1,-1.93506544e-10 Z" id="path-8"></path>
        <filter x="-1.6%" y="-5.3%" width="103.3%" height="110.7%" filterUnits="objectBoundingBox" id="filter-9">
            <feGaussianBlur stdDeviation="0.5" in="SourceAlpha" result="shadowBlurInner1"></feGaussianBlur>
            <feOffset dx="0" dy="1.2" in="shadowBlurInner1" result="shadowOffsetInner1"></feOffset>
            <feComposite in="shadowOffsetInner1" in2="SourceAlpha" operator="arithmetic" k2="-1" k3="1" result="shadowInnerInner1"></feComposite>
            <feColorMatrix values="0 0 0 0 0.794137968   0 0 0 0 0.794137968   0 0 0 0 0.794137968  0 0 0 1 0" type="matrix" in="shadowInnerInner1" result="shadowMatrixInner1"></feColorMatrix>
            <feGaussianBlur stdDeviation="0.5" in="SourceAlpha" result="shadowBlurInner2"></feGaussianBlur>
            <feOffset dx="0" dy="-1" in="shadowBlurInner2" result="shadowOffsetInner2"></feOffset>
            <feComposite in="shadowOffsetInner2" in2="SourceAlpha" operator="arithmetic" k2="-1" k3="1" result="shadowInnerInner2"></feComposite>
            <feColorMatrix values="0 0 0 0 0.455490009   0 0 0 0 0.454160058   0 0 0 0 0.454160058  0 0 0 1 0" type="matrix" in="shadowInnerInner2" result="shadowMatrixInner2"></feColorMatrix>
            <feMerge>
                <feMergeNode in="shadowMatrixInner1"></feMergeNode>
                <feMergeNode in="shadowMatrixInner2"></feMergeNode>
            </feMerge>
        </filter>
        <linearGradient x1="2.16431984%" y1="99.9567257%" x2="100%" y2="100%" id="linearGradient-10">
            <stop stop-color="#FFFFFF" stop-opacity="0" offset="0%"></stop>
            <stop stop-color="#FFFFFF" offset="44.0439343%"></stop>
            <stop stop-color="#FFFFFF" stop-opacity="0.788412204" offset="80.8871779%"></stop>
            <stop stop-color="#BDBCBC" stop-opacity="0" offset="100%"></stop>
        </linearGradient>
        <linearGradient x1="27.3258364%" y1="3.39341399%" x2="50%" y2="94.3483116%" id="linearGradient-11">
            <stop stop-color="#909090" offset="0%"></stop>
            <stop stop-color="#A8A8A8" stop-opacity="0.0421761775" offset="100%"></stop>
        </linearGradient>
        <linearGradient x1="23.2901374%" y1="140.101897%" x2="71.2024811%" y2="-101.254485%" id="linearGradient-12">
            <stop stop-color="#4F9053" offset="0%"></stop>
            <stop stop-color="#48914C" offset="14.6082572%"></stop>
            <stop stop-color="#4B9550" offset="54.6096049%"></stop>
            <stop stop-color="#3C783F" offset="83.4587971%"></stop>
            <stop stop-color="#4F9E53" offset="100%"></stop>
            <stop stop-color="#58A85C" offset="100%"></stop>
        </linearGradient>
        <linearGradient x1="68.2741223%" y1="45.2820956%" x2="27.4667726%" y2="59.9159542%" id="linearGradient-13">
            <stop stop-color="#4E9C52" offset="0%"></stop>
            <stop stop-color="#478D4A" offset="48.2681793%"></stop>
            <stop stop-color="#3D7A41" offset="100%"></stop>
        </linearGradient>
        <linearGradient x1="50%" y1="0%" x2="50%" y2="100%" id="linearGradient-14">
            <stop stop-color="#54EA50" offset="0%"></stop>
            <stop stop-color="#51E24F" offset="26.6626277%"></stop>
            <stop stop-color="#4A964E" offset="67.5989479%"></stop>
            <stop stop-color="#4A8B4E" offset="100%"></stop>
        </linearGradient>
    </defs>
    <g id="14所-硬件" stroke="none" stroke-width="1" fill="none" fill-rule="evenodd">
        <g id="画板" transform="translate(-322.000000, -24.000000)">
            <g id="板卡" transform="translate(322.000000, 23.000000)">
                <g id="矩形-copy-26" transform="translate(0.000000, 4.000000)">
                    <mask id="mask-3" fill="white">
                        <use xlink:href="#path-2"></use>
                    </mask>
                    <use id="Mask" fill="url(#linearGradient-1)" xlink:href="#path-2"></use>
                    <rect id="矩形" fill="#161612" mask="url(#mask-3)" x="4" y="0" width="68" height="2"></rect>
                    <rect id="矩形-copy-2" fill="#161612" mask="url(#mask-3)" x="3" y="451" width="68" height="2"></rect>
                    <g id="矩形-copy" mask="url(#mask-3)">
                        <use fill="black" fill-opacity="1" filter="url(#filter-5)" xlink:href="#path-4"></use>
                        <use fill="#070707" fill-rule="evenodd" xlink:href="#path-4"></use>
                    </g>
                    <rect fill="#161612" mask="url(#mask-3)" x="0" y="0" width="4" height="453"></rect>
                    <rect id="矩形-copy-34" fill="#161612" mask="url(#mask-3)" x="71" y="0" width="4" height="453"></rect>
                </g>
                <path d="M9.00004299,203 L42.780443,203 L77.0197873,244.362339 C77.3719578,244.787773 77.3125657,245.418147 76.8871313,245.770317 C76.7077941,245.918771 76.4822799,246 76.2494702,246 L41.1747753,246 C40.8677049,246 40.577659,245.85892 40.3880884,245.617352 L8.2133561,204.617352 C7.87240189,204.182877 7.94821562,203.554267 8.38269079,203.213313 C8.55879803,203.075113 8.77618361,203 9.00004299,203 Z" id="矩形-copy-41" fill="url(#linearGradient-6)"></path>
                <g id="分组-3" transform="translate(4.000000, 185.000000)">
                    <g id="路径">
                        <use fill="url(#linearGradient-7)" fill-rule="evenodd" xlink:href="#path-8"></use>
                        <use fill="black" fill-opacity="1" filter="url(#filter-9)" xlink:href="#path-8"></use>
                    </g>
                    <rect id="矩形" fill="url(#linearGradient-10)" x="3" y="0" width="54" height="1" rx="0.5"></rect>
                </g>
                <g id="分组-4-copy" transform="translate(18.000000, 0.000000)">
                    <rect id="矩形" fill="#1E1E1E" x="10" y="6" width="33" height="12"></rect>
                    <polygon id="矩形" fill="url(#linearGradient-11)" opacity="0.385904948" points="11.3100723 14 34.7264835 14 57.9852104 27 33.3594671 27"></polygon>
                    <g id="分组-5">
                        <path d="M1.05932617,6.29702759 L30.5465254,6.64799242 L38.6003876,14.4181061 L12.6678238,14.3727717 C12.0128168,14.3716266 11.376183,14.1561418 10.855136,13.7592217 L1.05932617,6.29702759 Z" id="合并形状" fill="url(#linearGradient-12)"></path>
                        <path d="M39.4839282,12.430127 C39.4862132,12.3654677 39.4862132,12.3014486 39.4839282,12.2393501 C39.4822145,12.1842937 39.4736458,12.1324383 39.4685045,12.0786623 C39.4656483,12.0396106 39.4633633,12.0011992 39.4582221,11.9627878 C39.4416559,11.8373104 39.4182348,11.7137536 39.3856737,11.5953183 L39.3856737,11.5946781 C39.3502564,11.4711213 39.3079841,11.3578075 39.2605705,11.2483349 C39.2457181,11.2131244 39.2280094,11.1798345 39.210872,11.1465446 C39.1880221,11.0991705 39.1680285,11.050516 39.1423224,11.0063428 C39.1166162,10.9602491 39.0891964,10.9147956 39.0612053,10.8712626 L32.5089996,0.829871496 C32.5649818,0.916937431 32.6129666,1.01104546 32.6592376,1.1051535 C32.6758038,1.13972379 32.6935125,1.17237352 32.7083649,1.20694382 C32.7563497,1.31641643 32.7991932,1.42973018 32.8317543,1.54816546 C32.8671716,1.67236246 32.8894503,1.79591926 32.9065877,1.92139664 C32.9117289,1.95980808 32.9134426,1.9994999 32.9174414,2.03727115 C32.9277238,2.15314567 32.9362925,2.26902019 32.9322938,2.38873585 C32.9265813,2.56030695 32.9037314,2.72675654 32.8700279,2.88936497 C32.8620304,2.92649603 32.8488917,2.96170652 32.840323,2.9975572 C32.8100469,3.11855324 32.7740583,3.23634833 32.729501,3.35030228 C32.7152199,3.38615296 32.7003674,3.42136344 32.6849438,3.45657393 C32.6249628,3.59229436 32.5592694,3.72481384 32.4804372,3.84709026 C32.4770098,3.85221179 32.473011,3.85669312 32.4695836,3.86181465 C32.3941789,3.97896954 32.3062068,4.08716177 32.2148073,4.19023247 C32.1879587,4.22032144 32.1599676,4.2504104 32.1325477,4.27985917 C32.059428,4.35476148 31.9800247,4.4226217 31.8994788,4.48728096 C31.860634,4.51929049 31.8229317,4.55386079 31.7818019,4.58330956 C31.6681237,4.66461378 31.5493043,4.73695533 31.4247724,4.79713326 C31.4013512,4.8080165 31.3762164,4.81633898 31.352224,4.82722222 C31.2454008,4.87459633 31.13515,4.91236758 31.0220431,4.94245655 C30.984912,4.9526996 30.9472097,4.96230246 30.9095074,4.97062494 C30.7712656,5.00007371 30.6301675,5.02055981 30.4856419,5.02248038 L37.0372763,15.0638715 C37.1818019,15.0619509 37.3229,15.0414648 37.461713,15.012016 C37.4994154,15.0036936 37.5365464,14.9934505 37.5742487,14.9838477 C37.6867844,14.9537587 37.7976064,14.9153473 37.9038584,14.8679731 C37.928422,14.8577301 37.9529856,14.8494076 37.976978,14.8378842 C38.0860862,14.7847484 38.1929095,14.7252106 38.2940202,14.65607 C38.3077302,14.6464672 38.3202976,14.6343035 38.3340075,14.6240605 C38.3745661,14.5946117 38.4122684,14.5613218 38.4511132,14.5293123 C38.5042392,14.4857793 38.5602214,14.448008 38.6093487,14.4012741 C38.6356261,14.3763067 38.658476,14.3468579 38.6836108,14.3206101 C38.7121732,14.2918015 38.7395931,14.2623527 38.7664417,14.2316236 C38.7921478,14.202815 38.8207102,14.1772074 38.8452738,14.1471184 C38.9086822,14.0696553 38.9669495,13.9864305 39.0229317,13.9012852 C39.0257879,13.897444 39.0292154,13.8936029 39.0320717,13.8891216 C39.0920526,13.7943733 39.1451786,13.7009055 39.1925921,13.6029563 C39.2091583,13.5690262 39.2217257,13.5325353 39.2365782,13.497965 C39.2520018,13.4627546 39.2668543,13.4275441 39.2811354,13.3916934 C39.2948454,13.3558427 39.3119828,13.3225528 39.3245502,13.2860619 C39.3525413,13.2060381 39.3708213,13.1221731 39.3925286,13.0389483 C39.4010974,13.0018173 39.4136648,12.967247 39.421091,12.9307561 C39.423376,12.9192327 39.427946,12.9096298 39.430231,12.8981064 C39.4605071,12.7463812 39.478787,12.5895344 39.4839282,12.430127 Z" id="Fill-1" fill="url(#linearGradient-13)" transform="translate(34.985642, 7.946871) rotate(-13.000000) translate(-34.985642, -7.946871) "></path>
                        <path d="M3,1 C11.7523809,1 20.5047619,1 29.2571428,1 C29.2571428,1 29.2571428,1 29.2571428,1 L29.2571428,1 C30.9139971,1.00000019 32.2571427,2.3431461 32.2571425,4.00000035 C32.2571423,5.65685433 30.9139968,6.99999981 29.2571428,7 L3,7 C1.34314575,7 -5.70846019e-14,5.65685425 -5.72875081e-14,4 L-6.08402217e-14,4 C-6.10431279e-14,2.34314575 1.34314575,1 3,1 Z" id="矩形" fill="url(#linearGradient-14)"></path>
                    </g>
                </g>
            </g>
        </g>
    </g>
</svg>