<?xml version="1.0" encoding="UTF-8"?>
<svg width="28px" height="23px" viewBox="0 0 28 23" version="1.1" xmlns="http://www.w3.org/2000/svg" xmlns:xlink="http://www.w3.org/1999/xlink">
    <!-- Generator: Sketch 52.2 (67145) - http://www.bohemiancoding.com/sketch -->
    <title>InternetAccess</title>
    <desc>Created with Sketch.</desc>
    <defs>
        <linearGradient x1="0%" y1="6.80093851%" x2="100%" y2="100%" id="linearGradient-1">
            <stop stop-color="#757575" offset="0%"></stop>
            <stop stop-color="#C9C9C9" offset="27.645791%"></stop>
            <stop stop-color="#535252" offset="68.5099488%"></stop>
            <stop stop-color="#D4D4D4" offset="100%"></stop>
        </linearGradient>
        <rect id="path-2" x="0" y="0" width="26" height="20" rx="0.5"></rect>
        <filter x="-9.6%" y="-7.5%" width="119.2%" height="130.0%" filterUnits="objectBoundingBox" id="filter-3">
            <feMorphology radius="0.5" operator="erode" in="SourceAlpha" result="shadowSpreadOuter1"></feMorphology>
            <feOffset dx="0" dy="2" in="shadowSpreadOuter1" result="shadowOffsetOuter1"></feOffset>
            <feGaussianBlur stdDeviation="1" in="shadowOffsetOuter1" result="shadowBlurOuter1"></feGaussianBlur>
            <feComposite in="shadowBlurOuter1" in2="SourceAlpha" operator="out" result="shadowBlurOuter1"></feComposite>
            <feColorMatrix values="0 0 0 0 0.498963648   0 0 0 0 0.498963648   0 0 0 0 0.498963648  0 0 0 0.5 0" type="matrix" in="shadowBlurOuter1"></feColorMatrix>
        </filter>
        <linearGradient x1="50%" y1="0%" x2="60.4124259%" y2="94.0174905%" id="linearGradient-4">
            <stop stop-color="#202020" offset="0%"></stop>
            <stop stop-color="#272727" offset="25.5241566%"></stop>
            <stop stop-color="#2C2C2C" offset="49.4424768%"></stop>
            <stop stop-color="#232323" offset="66.9453494%"></stop>
            <stop stop-color="#0A0A0A" offset="100%"></stop>
        </linearGradient>
        <linearGradient x1="26.575958%" y1="2.80145668%" x2="87.5346539%" y2="100%" id="linearGradient-5">
            <stop stop-color="#000000" offset="0%"></stop>
            <stop stop-color="#222222" offset="100%"></stop>
        </linearGradient>
        <linearGradient x1="23.0708428%" y1="0%" x2="94.7920141%" y2="93.1302106%" id="linearGradient-6">
            <stop stop-color="#C1C1C1" offset="0%"></stop>
            <stop stop-color="#FFFFFF" offset="42.7990484%"></stop>
            <stop stop-color="#7D7D7D" offset="100%"></stop>
        </linearGradient>
        <path d="M5.89386857,7.47676571e-06 L16.9278673,-3.06986697e-06 C18.0309591,-3.06986697e-06 18.9257786,0.893118126 18.9278742,1.99620794 C18.9430007,9.95852514 18.9416783,14.0139912 18.9239069,14.162606 C18.8951067,14.4034506 17.3917193,15.7080454 17.049482,15.6750611 C13.3150277,15.6750611 9.58057351,15.6750611 5.84611927,15.6750611 L5.84611927,15.6750611 C4.74154978,15.6750611 3.84611927,14.7796306 3.84611927,13.6750611 L3.84611927,12.1103702 C2.05219018,11.0717637 0.9348319,10.3959459 0.494044423,10.0829166 C0.394242855,9.75904322 0.394242855,5.80998503 0.564236035,5.60269013 C0.677564822,5.46449353 1.77953033,4.69140283 3.87013255,3.28341803 L3.89420102,1.96354271 C3.91408079,0.87336888 4.8035135,7.47676572e-06 5.89386857,7.47676572e-06 Z" id="path-7"></path>
        <linearGradient x1="5.34935796%" y1="67.4632764%" x2="95.7282058%" y2="67.4632764%" id="linearGradient-9">
            <stop stop-color="#797979" stop-opacity="0" offset="0%"></stop>
            <stop stop-color="#A8A7A7" stop-opacity="0.761916893" offset="55.5071351%"></stop>
            <stop stop-color="#797979" stop-opacity="0.127236187" offset="100%"></stop>
        </linearGradient>
        <linearGradient x1="15.7460297%" y1="67.4632764%" x2="91.8949624%" y2="67.4632764%" id="linearGradient-10">
            <stop stop-color="#797979" stop-opacity="0.167657382" offset="0%"></stop>
            <stop stop-color="#BDBCBC" stop-opacity="0.707568439" offset="34.1505423%"></stop>
            <stop stop-color="#898989" offset="62.617985%"></stop>
            <stop stop-color="#909090" offset="78.0260486%"></stop>
            <stop stop-color="#797979" stop-opacity="0.148579031" offset="100%"></stop>
        </linearGradient>
        <linearGradient x1="8.97363328%" y1="59.4357179%" x2="34.5969355%" y2="19.9808162%" id="linearGradient-11">
            <stop stop-color="#797979" stop-opacity="0.23997962" offset="0%"></stop>
            <stop stop-color="#AFAFAF" stop-opacity="0.421846694" offset="55.8185613%"></stop>
            <stop stop-color="#797979" stop-opacity="0.358072917" offset="100%"></stop>
        </linearGradient>
    </defs>
    <g id="14所-硬件" stroke="none" stroke-width="1" fill="none" fill-rule="evenodd">
        <g id="画板-copy" transform="translate(-83.000000, -380.000000)">
            <g id="网口" transform="translate(84.000000, 380.000000)">
                <g id="矩形-2">
                    <use fill="black" fill-opacity="1" filter="url(#filter-3)" xlink:href="#path-2"></use>
                    <rect stroke="#000000" stroke-width="1" stroke-linejoin="square" fill="url(#linearGradient-1)" fill-rule="evenodd" x="0.5" y="0.5" width="25" height="19" rx="0.5"></rect>
                </g>
                <g id="矩形" transform="translate(3.000000, 2.000000)">
                    <mask id="mask-8" fill="white">
                        <use xlink:href="#path-7"></use>
                    </mask>
                    <g id="Mask">
                        <path stroke="url(#linearGradient-5)" stroke-width="1" d="M0.95502717,9.79247235 C1.46864148,10.1335907 2.52049787,10.7651412 4.09664028,11.6776587 L4.34611927,11.8220961 L4.34611927,13.6750611 C4.34611927,14.5034882 5.01769215,15.1750611 5.84611927,15.1750611 C8.64695995,15.1750611 8.64695995,15.1750611 11.4478006,15.1750611 C14.2486413,15.1750611 14.2486413,15.1750611 17.097449,15.1773672 C17.0516069,15.172949 17.4416716,14.9230237 17.7839932,14.6375321 C17.982443,14.4720277 18.1706144,14.2994007 18.3073603,14.1578167 C18.3669885,14.0960788 18.4259038,14.0202149 18.4287734,14.0777677 C18.4411757,13.6979032 18.4420107,9.43785274 18.4278751,1.99715782 C18.4263034,1.169839 17.7551876,0.49999693 16.9278678,0.49999693 L5.89386905,0.500007477 C5.07610227,0.500007477 4.40902774,1.15502853 4.39411791,1.9726589 L4.36530428,3.5527507 L4.14943659,3.6981339 C2.19692857,5.01311462 1.01350127,5.84335534 0.950859537,5.9197426 C0.933661351,5.94071459 0.906178784,9.05684958 0.95502717,9.79247235 Z M18.4287734,14.0777677 C18.4291044,14.084407 18.4286896,14.0928219 18.4274439,14.1032389 C18.4279008,14.0994178 18.428344,14.0909177 18.4287734,14.0777677 Z" stroke-linejoin="square" fill="url(#linearGradient-4)" fill-rule="evenodd"></path>
                        <use stroke="url(#linearGradient-6)" stroke-width="0.5" xlink:href="#path-7"></use>
                    </g>
                    <rect fill="url(#linearGradient-9)" mask="url(#mask-8)" x="3.15638451" y="15.4054054" width="11.3629842" height="1" rx="0.5"></rect>
                    <rect id="矩形-copy-52" fill="url(#linearGradient-10)" mask="url(#mask-8)" x="8.83787661" y="-0.27027027" width="8.83787661" height="1" rx="0.5"></rect>
                    <path d="M3.24271766,3.69300576 L4.65234908,3.34378801 L4.54697587,4.85069518 L3.21322665,5.02288044 L2.91205287,4.39441406 C2.79271533,4.14538963 2.89784733,3.84677326 3.14687175,3.72743573 C3.17756526,3.71272678 3.20968045,3.70119029 3.24271766,3.69300576 Z" id="矩形-copy-53" fill="url(#linearGradient-11)" mask="url(#mask-8)" transform="translate(3.757592, 4.183334) rotate(-4.000000) translate(-3.757592, -4.183334) "></path>
                </g>
            </g>
        </g>
    </g>
</svg>