<?xml version="1.0" encoding="UTF-8"?>
<svg width="13px" height="13px" viewBox="0 0 13 13" version="1.1" xmlns="http://www.w3.org/2000/svg" xmlns:xlink="http://www.w3.org/1999/xlink">
    <!-- Generator: Sketch 57 (83077) - https://sketch.com -->
    <title>组件</title>
    <desc>Created with Sketch.</desc>
    <defs>
        <polygon id="path-1" points="-2.1168944e-16 0 13 0 13 13 -2.1168944e-16 13"></polygon>
    </defs>
    <g id="14所-信息构建库" stroke="none" stroke-width="1" fill="none" fill-rule="evenodd">
        <g id="系统配置1" transform="translate(-341.000000, -495.000000)">
            <g id="菜单" transform="translate(282.000000, 219.000000)">
                <g id="组件" transform="translate(59.000000, 276.000000)">
                    <mask id="mask-2" fill="white">
                        <use xlink:href="#path-1"></use>
                    </mask>
                    <g id="Clip-2"></g>
                    <path d="M10.9925543,10.3291702 L9.2778912,11.5174733 L9.2778912,10.7497298 L10.4761619,10.0007205 L9.2778912,9.26287979 L9.2778912,8.5006605 L10.9925543,9.67803531 L10.9925543,10.3291702 Z M7.88110964,11.8294704 L7.14759217,11.8294704 L7.77194668,8.09967575 L8.50546415,8.09967575 L7.88110964,11.8294704 Z M6.23201633,9.26287979 L5.03722829,9.99555662 L6.23201633,10.7445659 L6.23201633,11.5123094 L4.51735319,10.3291702 L4.51735319,9.67251111 L6.23201633,8.48985229 L6.23201633,9.26287979 Z M3.49573676,8.00588447 L1.49813859,8.00588447 L1.49813859,6.00840639 L3.49573676,6.00840639 L3.49573676,4.01080821 L1.49813859,4.01080821 L1.49813859,2.01321004 L3.49573676,2.01321004 L3.49573676,4.01080821 L5.49333493,4.01080821 L5.49333493,6.00840639 L3.49573676,6.00840639 L3.49573676,8.00588447 Z M12.5006605,0 L5.49333493,0 L5.49333493,1.99759817 L3.49573676,1.99759817 L3.49573676,0 L0.499459589,0 C0.223850126,0.000720547616 0.000720547616,0.223970217 0,0.499339498 L0,12.5005404 C0.000720547616,12.7760298 0.223850126,12.9991594 0.499459589,13 L12.5006605,13 C12.7761499,12.9991594 12.9992795,12.7760298 13,12.5005404 L13,0.499339498 C12.9992795,0.223970217 12.7761499,0.000720547616 12.5006605,0 L12.5006605,0 Z" id="Fill-1" fill="#4ECB74" mask="url(#mask-2)"></path>
                </g>
            </g>
        </g>
    </g>
</svg>