<?xml version="1.0" encoding="UTF-8"?>
<svg width="13px" height="15px" viewBox="0 0 13 15" version="1.1" xmlns="http://www.w3.org/2000/svg" xmlns:xlink="http://www.w3.org/1999/xlink">
    <!-- Generator: Sketch 57 (83077) - https://sketch.com -->
    <title>模型</title>
    <desc>Created with Sketch.</desc>
    <defs>
        <polygon id="path-1" points="0 0 13 0 13 15 0 15"></polygon>
    </defs>
    <g id="14所-信息构建库" stroke="none" stroke-width="1" fill="none" fill-rule="evenodd">
        <g id="系统配置1" transform="translate(-334.000000, -278.000000)">
            <g id="菜单" transform="translate(282.000000, 219.000000)">
                <g id="模型" transform="translate(52.000000, 59.000000)">
                    <mask id="mask-2" fill="white">
                        <use xlink:href="#path-1"></use>
                    </mask>
                    <g id="Clip-2"></g>
                    <path d="M6.49892237,15 C6.2614818,15 6.02517043,14.9349855 5.81821834,14.812826 L0.679626641,11.7645933 C0.258485293,11.5125633 -0.000410131511,11.0488005 0,10.5474868 L0,4.44869762 C0,3.95002458 0.261410955,3.48267046 0.680704516,3.2339149 L5.81816701,0.184467511 C6.23094199,-0.0620170304 6.76577354,-0.0609607435 7.18070427,0.184467511 L12.3181668,3.23275298 C12.7385895,3.48267046 13,3.94775357 13,4.44869762 L13,10.5486487 C13,11.0495927 12.7385895,11.514623 12.3181668,11.7634842 L7.18070427,14.812826 C6.97375218,14.9338764 6.73959656,15 6.49892237,15 L6.49892237,15 Z M6.19716856,13.0982083 C6.27344108,13.1766376 6.38235783,13.2259134 6.49892237,13.2259134 C6.49892237,13.2259134 6.50107812,13.2259134 6.49892237,13.2259134 C6.73677356,13.2241177 6.92899468,13.0257998 6.93022654,12.7810054 L6.92914867,12.4863013 L6.94434158,8.03711538 C6.94624069,7.84767033 7.04750966,7.6741224 7.20898567,7.58328172 L11.3477195,5.2656827 C11.4944646,5.19744657 11.59173,5.05051706 11.5997371,4.88510254 C11.6076928,4.71968801 11.5250044,4.56356881 11.3856505,4.48080874 C11.2461939,4.39799585 11.0734259,4.40248507 10.9382808,4.49242789 L6.79949564,6.80891782 C6.69098951,6.86970713 6.59090108,6.94549571 6.50220732,7.03417099 C6.41448879,6.94602385 6.31558088,6.87060497 6.2081013,6.81002692 L2.20225407,4.49459328 C1.99812499,4.39535513 1.75401186,4.47542167 1.6434013,4.6780175 C1.53284207,4.88061332 1.59325443,5.13671007 1.78183131,5.2645736 L5.78880774,7.58433801 C5.9513103,7.67517868 6.05242528,7.85020542 6.05237396,8.0404955 L6.06982527,12.7854946 C6.06982527,12.9087632 6.11771374,13.0185643 6.19501281,13.0992646 L6.19716856,13.0982083 Z" id="Fill-1" fill="#4ECB74" mask="url(#mask-2)"></path>
                </g>
            </g>
        </g>
    </g>
</svg>