<?xml version="1.0" encoding="UTF-8"?>
<svg width="13px" height="13px" viewBox="0 0 13 13" version="1.1" xmlns="http://www.w3.org/2000/svg" xmlns:xlink="http://www.w3.org/1999/xlink">
    <!-- Generator: Sketch 57 (83077) - https://sketch.com -->
    <title>分组</title>
    <desc>Created with Sketch.</desc>
    <defs>
        <polygon id="path-1" points="0 0 13 0 13 13 0 13"></polygon>
    </defs>
    <g id="14所-信息构建库" stroke="none" stroke-width="1" fill="none" fill-rule="evenodd">
        <g id="系统配置1" transform="translate(-316.000000, -252.000000)">
            <g id="菜单" transform="translate(282.000000, 219.000000)">
                <g id="分组" transform="translate(34.000000, 33.000000)">
                    <mask id="mask-2" fill="white">
                        <use xlink:href="#path-1"></use>
                    </mask>
                    <g id="Clip-2"></g>
                    <path d="M13,10.2576654 C12.8334228,10.1916958 12.7271698,9.98644813 12.5239383,10.0154006 C12.0070287,10.08883 11.9734391,9.80390271 11.9856572,9.39219767 C12.0125934,8.47886573 11.9868669,7.56448536 11.9973107,6.65050823 C12.0021496,6.1746885 11.7799659,5.98641711 11.3154772,5.99032851 C10.0293929,6.00165948 8.74282471,5.97629586 7.45674042,6.00625638 C7.05886641,6.01569213 6.94220993,5.88750306 7.00446973,5.52523489 C7.00753433,5.50874249 7.00446973,5.4914033 7.00511491,5.47454799 C7.01430871,5.00215577 6.85317518,4.40580847 7.08144768,4.09221101 C7.30177641,3.78877512 7.93405213,4.01160392 8.38446793,3.99567606 C8.77875313,3.98192567 8.9979528,3.80075126 9.00283196,3.41586148 C9.01492908,2.46833503 9.00404168,1.52040535 9.00767081,0.572556306 C9.00892084,0.333154462 8.84472271,0.181497002 8.73492126,0 L4.26580457,0 C4.05341961,0.23532915 3.98011111,0.507473844 3.98632096,0.826434361 C4.001523,1.63823122 3.98563546,2.45087487 3.99357923,3.26291367 C3.99906325,3.83393767 4.1510433,3.97829654 4.71682522,3.99140175 C4.75041487,3.99212757 4.78460937,3.98902265 4.81811837,3.99212757 C5.20022581,4.02539463 5.84971975,3.84220403 5.91613289,4.07112171 C6.07976649,4.6332745 6.00286919,5.27220363 5.97782817,5.87867217 C5.96871501,6.08734735 5.72761957,5.98980431 5.59572072,5.99032851 C4.32681433,5.99823196 3.05790794,5.99460283 1.78896123,5.99520768 C1.14567714,5.99561092 1.00889913,6.12581617 1.00704424,6.75297077 C1.00466514,7.71739286 0.998495616,8.68201656 1.01135888,9.64635799 C1.01502834,9.90059896 0.957647701,10.0364495 0.678688301,9.99798071 C0.406503283,9.96011675 0.206296081,10.1179034 0,10.2576654 L0,12.6951125 C0.101857682,12.7967685 0.203271803,12.8983439 0.305129486,13 L3.25017138,13 C3.4363056,12.7708001 3.51142867,12.5128493 3.50223486,12.2145345 C3.48759736,11.7075446 3.50590432,11.2000707 3.49618631,10.6931614 C3.48517794,10.1471784 3.34670633,10.01782 2.79177148,9.99733553 C2.00868511,9.9687057 2.00868511,9.9687057 2.00868511,9.18989364 C2.00868511,8.56451328 2.0190483,7.93885065 2.00380594,7.31395417 C1.99836224,7.0700764 2.07711444,6.9974534 2.31933894,6.99955024 C3.45158829,7.0108812 4.58444249,7.01027634 5.71665152,6.99995347 C5.94371431,6.99809858 6.00230465,7.07564107 5.99984491,7.2913729 C5.98944139,8.08566926 5.98879621,8.88048984 5.99984491,9.67478621 C6.00286919,9.90213126 5.9571421,9.99144827 5.69898974,10.004997 C4.49097214,10.06641 4.49169797,10.07637 4.49169797,11.3156788 C4.49169797,11.6031868 4.50690001,11.891582 4.48738333,12.1775174 C4.46605209,12.4986554 4.55210288,12.7696307 4.77364132,13 L8.2270845,13 C8.44858262,12.76955 8.52733482,12.4985747 8.51390703,12.1775174 C8.49443068,11.7051251 8.51334249,11.2312006 8.50781815,10.757881 C8.50055988,10.1575416 8.35466871,10.0131828 7.75884563,9.99733553 C7.00511491,9.97749627 7.00511491,9.97749627 7.00511491,9.21820088 C7.00511491,8.59298181 7.01660716,7.96727886 6.99902603,7.34226142 C6.99164679,7.08112509 7.06120518,6.99446945 7.33472088,6.99842117 C8.44987298,7.01370386 9.56558961,7.0108812 10.6812659,6.99955024 C10.9236114,6.99717114 11.0005087,7.0700764 10.9967989,7.31363158 C10.9834518,8.10796827 10.9822421,8.90262755 10.9967989,9.69680295 C11.0017587,9.95773765 10.8882475,9.9921741 10.6654187,10.0021341 C9.50199913,10.0538694 9.50199913,10.059676 9.50199913,11.2513625 C9.50199913,11.5556048 9.51490271,11.8605327 9.49845064,12.1638476 C9.48191792,12.4775661 9.54728265,12.7571303 9.75051413,13 L12.6954754,13 C12.7973734,12.8983439 12.8987472,12.7967685 13,12.6951125 L13,10.2576654 Z" id="Fill-1" fill="#1890FF" mask="url(#mask-2)"></path>
                </g>
            </g>
        </g>
    </g>
</svg>