<?xml version="1.0" encoding="UTF-8"?>
<svg width="12px" height="15px" viewBox="0 0 12 15" version="1.1" xmlns="http://www.w3.org/2000/svg" xmlns:xlink="http://www.w3.org/1999/xlink">
    <!-- Generator: Sketch 57 (83077) - https://sketch.com -->
    <title>txt</title>
    <desc>Created with Sketch.</desc>
    <g id="14所-信息构建库" stroke="none" stroke-width="1" fill="none" fill-rule="evenodd">
        <g id="菜单栏左侧切图" transform="translate(-320.000000, -620.000000)" fill="#A079C9">
            <g id="菜单" transform="translate(286.000000, 135.000000)">
                <g id="分组-15-copy-2备份" transform="translate(18.000000, 432.000000)">
                    <path d="M17.7142857,67 L26.2857143,67 L26.2857143,66 L17.7142857,66 L17.7142857,67 Z M26.2857143,61 L23.7142857,61 L23.7142857,61.8000078 L24.6785832,61.8000078 L24.6785832,65 L25.3213854,65 L25.3213854,61.8000078 L26.2857143,61.8000078 L26.2857143,61 Z M23.2714286,61 L22.6285714,61 L21.9857457,62.3332552 L21.3428885,61 L20.7,61 L21.6643171,63.0000195 L20.7,65 L21.3428885,65 L21.9857457,63.6668229 L22.6285714,65 L23.2714286,65 L22.3072056,63.0000195 L23.2714286,61 Z M20.2857143,61 L17.7142857,61 L17.7142857,61.8000078 L18.6785832,61.8000078 L18.6785832,65 L19.3214796,65 L19.3214796,61.8000078 L20.2857143,61.8000078 L20.2857143,61 Z M24.5714286,54 L24.5714286,56 L26.2857143,56 L24.5714286,54 Z M27.368447,65.7500201 L27.0526551,65.7500201 L27.0526551,67.2499945 C27.0526551,67.4489217 26.9861044,67.639719 26.8676825,67.7803451 C26.7491988,67.9209711 26.5885582,68 26.4210713,68 L17.5789287,68 C17.411411,68 17.2507703,67.9209711 17.1323792,67.7803451 C17.0138956,67.639719 16.9474066,67.4489217 16.9474066,67.2499945 L16.9474066,65.7500201 L16.6315838,65.7500201 C16.4640969,65.7500201 16.3034563,65.6709912 16.1849726,65.5303652 C16.0665507,65.3896659 16,65.1989053 16,65.0000146 L16,60.5000549 C16,60.0857941 16.2827941,59.7500494 16.6315838,59.7500494 L16.9474066,59.7500494 L16.9474066,53.7500055 C16.9474066,53.5511149 17.0138956,53.3603542 17.1323792,53.2196549 C17.2507703,53.0790289 17.411411,53 17.5789287,53 L23.2631522,53 L23.2631522,53.7500055 L17.5789287,53.7500055 L17.5789287,59.7500494 L26.4210713,59.7500494 L26.4210713,56.7500275 L23.8947669,56.7500275 L23.8947669,53 L24.5263198,53 L27.0526551,56.000022 L27.0526551,59.7500494 L27.368447,59.7500494 C27.5359648,59.7500494 27.6966054,59.8290417 27.8150274,59.9696677 C27.933511,60.110367 28,60.3011277 28,60.5000549 L28,65.0000146 C28,65.1989053 27.933511,65.3896659 27.8150274,65.5303652 C27.6966054,65.6709912 27.5359648,65.7500201 27.368447,65.7500201 L27.368447,65.7500201 Z" id="txt"></path>
                </g>
            </g>
        </g>
    </g>
</svg>