<?xml version="1.0" encoding="UTF-8"?>
<svg width="12px" height="15px" viewBox="0 0 12 15" version="1.1" xmlns="http://www.w3.org/2000/svg" xmlns:xlink="http://www.w3.org/1999/xlink">
    <!-- Generator: Sketch 57 (83077) - https://sketch.com -->
    <title>xml</title>
    <desc>Created with Sketch.</desc>
    <defs>
        <polygon id="path-1" points="0.00231111111 0.00759055398 11.9918133 0.00759055398 11.9918133 14.6305597 0.00231111111 14.6305597"></polygon>
        <polygon id="path-3" points="0.00231111111 0.0374533913 11.9917956 0.0374533913 11.9917956 4.47651256 0.00231111111 4.47651256"></polygon>
    </defs>
    <g id="14所-信息构建库" stroke="none" stroke-width="1" fill="none" fill-rule="evenodd">
        <g id="菜单栏左侧切图" transform="translate(-320.000000, -666.000000)">
            <g id="菜单" transform="translate(286.000000, 135.000000)">
                <g id="分组-15-copy-2备份" transform="translate(18.000000, 432.000000)">
                    <g id="xml" transform="translate(16.000000, 99.000000)">
                        <g id="编组">
                            <g>
                                <mask id="mask-2" fill="white">
                                    <use xlink:href="#path-1"></use>
                                </mask>
                                <g id="Clip-2"></g>
                                <path d="M8.50168,0.00759055398 L0.407991111,0.00759055398 C0.182657778,0.00759055398 -8.88888889e-06,0.178627708 -8.88888889e-06,0.510547985 L-8.88888889e-06,14.369468 C-8.88888889e-06,14.4595226 0.182657778,14.6305597 0.407991111,14.6305597 L11.5839022,14.6305597 C11.8091467,14.6305597 11.9918133,14.4595226 11.9918133,14.369468 L11.9918133,3.39645663 C11.9918133,3.21468284 11.9659467,3.15625555 11.9201689,3.11314253 L8.67510222,0.0746737393 C8.62905778,0.0318104137 8.56665778,0.00759055398 8.50168,0.00759055398" id="Fill-1" fill="#E9E9E0" mask="url(#mask-2)"></path>
                            </g>
                            <polygon id="Fill-3" fill="#D9D7CA" points="8.64525333 0.0469665527 8.64525333 3.14111606 11.9497867 3.14111606"></polygon>
                            <g transform="translate(0.000000, 10.154031)">
                                <mask id="mask-4" fill="white">
                                    <use xlink:href="#path-3"></use>
                                </mask>
                                <g id="Clip-6"></g>
                                <path d="M11.5838844,4.47651256 L0.407973333,4.47651256 C0.18264,4.47651256 -2.66666667e-05,4.30547541 -2.66666667e-05,4.09448797 L-2.66666667e-05,0.0374533913 L11.9917956,0.0374533913 L11.9917956,4.09448797 C11.9917956,4.30547541 11.8091289,4.47651256 11.5838844,4.47651256" id="Fill-5" fill="#F29C1F" mask="url(#mask-4)"></path>
                            </g>
                        </g>
                        <path d="M8.675125,11.2503558 L8.675125,13.7153744 L10,13.7153744 L10,14.0625 L8.19833035,14.0625 L8.19833035,11.2503558 L8.675125,11.2503558 Z M6.99855358,11.2503558 L7.47525711,11.2503558 L7.47525711,14.0625 L6.99855358,14.0625 L6.99855358,12.1277776 L6.35365534,13.6921556 L5.93945537,13.6921556 L5.29054816,12.1277776 L5.29054816,14.0625 L4.8136624,14.0625 L4.8136624,11.2503558 L5.29054816,11.2503558 L6.14637313,13.1736023 L6.99855358,11.2503558 Z M3.39129642,12.6963269 L4.12220539,14.0625 L3.57908044,14.0625 L3.12169288,13.0017298 L3.08251426,13.0017298 L2.59004818,14.0625 L2.04683211,14.0625 L2.77783219,12.6963269 L2,11.25 L2.53538034,11.25 L3.04333565,12.3949272 L3.08251426,12.3949272 L3.63365716,11.25 L4.16912862,11.25 L3.39129642,12.6963269 Z" id="Fill-7" fill="#FFFFFF"></path>
                        <g id="编组" transform="translate(2.000000, 2.812500)" fill="#F29C1F">
                            <path d="M0.315717073,2.71940385 C0.191814634,2.71963371 0.0800097561,2.66092469 0.032595122,2.57070953 C-0.0149170732,2.48057121 0.0115219512,2.37675461 0.0994243902,2.30782531 L1.9359122,0.861308914 C2.05542439,0.767251537 2.24918049,0.767251537 2.36869268,0.861308914 C2.48820488,0.955443135 2.48820488,1.10805584 2.36869268,1.20219006 L0.532204878,2.6487833 C0.474839024,2.69404457 0.396985366,2.71948002 0.315717073,2.71940385" id="Fill-8"></path>
                            <path d="M5.82539512,4.1659433 C5.70139512,4.16617316 5.58959024,4.10746414 5.54217561,4.01724898 C5.49476098,3.92711066 5.52110244,3.82329406 5.60890732,3.7544416 L7.44549268,2.30784836 C7.56500488,2.21371414 7.75876098,2.21371414 7.87827317,2.30784836 C7.99788293,2.40205943 7.99788293,2.55459529 7.87827317,2.64880635 L6.04178537,4.09532275 C5.98441951,4.14066086 5.90656585,4.16601947 5.82539512,4.1659433 M2.15232195,4.1659433 C2.07105366,4.16601947 1.99329756,4.14066086 1.93593171,4.09532275 L0.0994439024,2.64880635 C-0.0201658537,2.55459529 -0.0201658537,2.40205943 0.0994439024,2.30784836 C0.218858537,2.21371414 0.412712195,2.21371414 0.53222439,2.30784836 L2.3687122,3.7544416 C2.45651707,3.82329406 2.4829561,3.92711066 2.4354439,4.01724898 C2.38802927,4.10746414 2.27622439,4.16617316 2.15232195,4.1659433" id="Fill-10"></path>
                            <path d="M3.07053659,4.64809438 C2.97112195,4.64817111 2.87785366,4.6101332 2.8204878,4.54627561 C2.76312195,4.48234119 2.74878049,4.40034836 2.78195122,4.32650102 L4.61834146,0.227935451 C4.67463415,0.10244877 4.84956098,0.0365932377 5.00897561,0.080932377 C5.16839024,0.125271516 5.252,0.263053279 5.19570732,0.388539959 L3.35921951,4.48710553 C3.31609756,4.58354508 3.20039024,4.64809438 3.07053659,4.64809438 M7.66195122,2.7193808 C7.58068293,2.71945697 7.50282927,2.69402152 7.44556098,2.64876025 L5.60897561,1.20224385 C5.48946341,1.10810963 5.48946341,0.955496926 5.60897561,0.861362705 C5.72839024,0.767228484 5.9222439,0.767228484 6.0417561,0.861362705 L7.8782439,2.30780225 C7.96614634,2.37673156 7.9924878,2.48054816 7.94507317,2.57068648 C7.8977561,2.66090164 7.7857561,2.71961066 7.66195122,2.7193808" id="Fill-12"></path>
                        </g>
                    </g>
                </g>
            </g>
        </g>
    </g>
</svg>