<?xml version="1.0" encoding="UTF-8"?>
<svg width="13px" height="13px" viewBox="0 0 13 13" version="1.1" xmlns="http://www.w3.org/2000/svg" xmlns:xlink="http://www.w3.org/1999/xlink">
    <!-- Generator: Sketch 57 (83077) - https://sketch.com -->
    <title>comp</title>
    <desc>Created with Sketch.</desc>
    <defs>
        <polygon id="path-1" points="0 0 13 0 13 13 0 13"></polygon>
    </defs>
    <g id="14所-信息构建库" stroke="none" stroke-width="1" fill="none" fill-rule="evenodd">
        <g id="菜单栏左侧切图" transform="translate(-336.000000, -276.000000)">
            <g id="菜单" transform="translate(286.000000, 135.000000)">
                <g id="分组-15" transform="translate(18.000000, 108.000000)">
                    <g id="comp" transform="translate(32.000000, 33.000000)">
                        <mask id="mask-2" fill="white">
                            <use xlink:href="#path-1"></use>
                        </mask>
                        <g id="Clip-2"></g>
                        <path d="M12.0228202,8.88084415 L7.15244245,11.5413499 C6.75095509,11.7226487 6.28896463,11.7226487 5.91024201,11.5413499 L0.986726256,8.91862231 C0.676176145,8.7372021 0.267201979,8.85812866 0.0853883407,9.16047543 C-0.096364429,9.47035353 0.0248243736,9.87850345 0.327826814,10.0598629 L5.28153325,12.720308 C5.66025587,12.9017282 6.06168236,13 6.4858736,13 C6.94786407,13 7.3494123,12.9017282 7.72807405,12.720308 L12.6818414,10.0598629 C12.9923915,9.87850345 13.0832678,9.47788487 12.9014542,9.16047543 C12.7424053,8.8203505 12.3409788,8.72213942 12.0228202,8.88084415 M12.0228202,5.91805232 L7.15244245,8.57843664 C6.75095509,8.75991759 6.28896463,8.75991759 5.91024201,8.57843664 L0.986726256,5.91805232 C0.676176145,5.73663211 0.267201979,5.85761941 0.0853883407,6.15990544 C-0.096364429,6.46219147 0.0248243736,6.87787272 0.327826814,7.05929293 L5.28153325,9.71979873 C5.66025587,9.9011582 6.06168236,9.99943001 6.4858736,9.99943001 C6.88736097,9.99943001 7.28878746,9.9011582 7.72807405,9.71979873 L12.6818414,7.05929293 C12.9923915,6.87787272 13.0832678,6.47731488 12.9014542,6.15990544 C12.7272491,5.85002733 12.3409788,5.7215087 12.0228202,5.91805232 M0.464110957,4.33835423 L5.41787826,6.84009456 C5.7283675,6.99886002 6.09954245,7.08200842 6.50102981,7.08200842 C6.87975243,7.08200842 7.24337971,6.98373661 7.5841205,6.84009456 L12.5378878,4.33835423 C12.8181255,4.1796495 13,3.87736347 13,3.55989329 C13,3.21976836 12.8181255,2.94013708 12.5378878,2.78143236 L7.5841205,0.279692019 C7.24337971,0.0982718103 6.86459622,0 6.50102981,0 C6.13746341,0 5.75874079,0.0982718103 5.41787826,0.24185312 L0.464110957,2.75871687 C0.183934132,2.94013708 0.00205962612,3.21976836 0.00205962612,3.55989329 C-0.00548804416,3.87736347 0.183934132,4.1796495 0.464110957,4.33835423" id="Fill-1" fill="#436D9F" mask="url(#mask-2)"></path>
                    </g>
                </g>
            </g>
        </g>
    </g>
</svg>