<?xml version="1.0" encoding="UTF-8"?>
<svg width="13px" height="11px" viewBox="0 0 13 11" version="1.1" xmlns="http://www.w3.org/2000/svg" xmlns:xlink="http://www.w3.org/1999/xlink">
    <!-- Generator: Sketch 57 (83077) - https://sketch.com -->
    <title>文件夹</title>
    <desc>Created with Sketch.</desc>
    <defs>
        <polygon id="path-1" points="0 0 13 0 13 11 0 11"></polygon>
    </defs>
    <g id="14所-信息构建库" stroke="none" stroke-width="1" fill="none" fill-rule="evenodd">
        <g id="菜单栏左侧切图" transform="translate(-320.000000, -168.000000)">
            <g id="菜单" transform="translate(286.000000, 135.000000)">
                <g id="文件夹" transform="translate(34.000000, 33.000000)">
                    <mask id="mask-2" fill="white">
                        <use xlink:href="#path-1"></use>
                    </mask>
                    <g id="Clip-2"></g>
                    <path d="M1.42072826,3.87108442 L0,10.2079817 L0,0.790575692 C0.00774683227,0.34723975 0.371032493,-0.00646612109 0.812296136,-6.21724894e-15 L4.87571352,-6.21724894e-15 C5.31687524,-0.00626125236 5.68005896,0.34723975 5.68790773,0.790575692 L5.68790773,1.50884548 L10.5632135,1.50884548 C11.0044772,1.50249455 11.367559,1.85599555 11.3754077,2.29933149 L11.3754077,3.07721808 L2.23373792,3.07721808 C2.02110777,3.07404261 1.81602057,3.1559901 1.6635303,3.30482724 C1.51104002,3.45376681 1.42368429,3.65740633 1.42072826,3.87108442 L1.42072826,3.87108442 Z M13,4.46458915 C12.992559,4.02135564 12.6295791,3.66754734 12.1884174,3.67420557 L2.84247585,3.67420557 C2.40141607,3.66764977 2.03853814,4.02135564 2.03160676,4.46458915 L0.609553381,10.9999018 L10.7669756,10.9999018 C11.208545,11.0067649 11.5723404,10.653059 11.5799853,10.2094158 L13,4.46458915 Z" id="Fill-1" fill="#436D9F" mask="url(#mask-2)"></path>
                </g>
            </g>
        </g>
    </g>
</svg>