<?xml version="1.0" encoding="UTF-8"?>
<svg width="12px" height="15px" viewBox="0 0 12 15" version="1.1" xmlns="http://www.w3.org/2000/svg" xmlns:xlink="http://www.w3.org/1999/xlink">
    <!-- Generator: Sketch 57 (83077) - https://sketch.com -->
    <title>java</title>
    <desc>Created with Sketch.</desc>
    <defs>
        <polygon id="path-1" points="0 0.0431390977 11.9588812 0.0431390977 11.9588812 15 0 15"></polygon>
    </defs>
    <g id="14所-信息构建库" stroke="none" stroke-width="1" fill="none" fill-rule="evenodd">
        <g id="菜单栏左侧切图" transform="translate(-320.000000, -643.000000)">
            <g id="菜单" transform="translate(286.000000, 135.000000)">
                <g id="分组-15-copy-2备份" transform="translate(18.000000, 432.000000)">
                    <g id="java" transform="translate(16.000000, 76.000000)">
                        <g id="分组">
                            <mask id="mask-2" fill="white">
                                <use xlink:href="#path-1"></use>
                            </mask>
                            <g id="Clip-2"></g>
                            <path d="M7.68804058,0.0431390977 L7.68804058,3.36710526 C7.68804058,3.8656015 8.02931594,4.19768797 8.54189565,4.19768797 L11.9588812,4.19768797 L11.9588812,14.1689662 C11.9588812,14.6674624 11.6170261,15 11.1045043,15 L0.853837681,15 C0.341373913,15 -1.73913043e-05,14.6674624 -1.73913043e-05,14.1689662 L-1.73913043e-05,0.874229323 C-1.73913043e-05,0.375676692 0.341373913,0.0431390977 0.853837681,0.0431390977 L7.68804058,0.0431390977 Z" id="Fill-1" fill="#489EC1" mask="url(#mask-2)"></path>
                        </g>
                        <path d="M12,4.24216023 L8.58787214,4.21294496 C7.98784771,4.21294496 7.58823863,3.81627764 7.58823863,3.33632541 L7.65980222,0 L12,4.24216023 Z" id="Fill-5" fill="#489EC1" opacity="0.552199591"></path>
                        <path d="M8.21877345,9.2261688 C8.86202827,8.80995443 9.95136712,8.97302139 9.99828426,9.67555886 C10.051363,10.4986534 8.86158285,10.9597956 8,11 C8.39968655,10.7113152 9.45487685,10.2478677 9.24887199,9.58109248 C9.16446567,9.31158215 8.72112836,9.14840273 8.21877345,9.22644995 L8.21877345,9.2261688 Z M6.64494131,3.6 C6.85203542,3.76097793 7,4.06107187 7,4.3805342 C7,5.3243079 5.7863666,5.87068184 5.19401552,6.50229985 C5.063649,6.6439094 4.89512987,6.86084687 4.89801595,7.0877005 C4.90392891,7.60229637 5.54949656,8.17795484 5.7863666,8.6 C5.37182643,8.37552393 4.86866237,8.07571994 4.51325172,7.72210199 C4.15812264,7.3708616 3.8026416,6.80030618 4.1283467,6.30751424 C4.61679877,5.56606474 6.07054026,5.12470918 6.58581179,4.33211324 C6.71026535,4.13935725 6.80796984,3.84442434 6.64494131,3.60034794 L6.64494131,3.6 Z M5.78945259,13.4 C4.78374981,13.321135 3.81535196,13.2154943 3,12.9580636 C5.13205674,13.3252016 8.24054623,13.2982431 9.73185085,12.5161728 C9.81239125,12.4739531 9.88757504,12.3912499 10,12.400754 C9.62439989,13.2078637 8.18162356,13.263654 6.94239827,13.4 L5.78906997,13.4 L5.78945259,13.4 Z M3.77450278,11.8268419 C3.54035747,11.8654325 2.93440325,11.8107117 2.91214275,12.0191847 C2.90476163,12.0993403 3.11898965,12.1940245 3.25712191,12.2276959 C4.06019871,12.4250341 5.67408492,12.4554261 7.00192371,12.3560134 C7.61801232,12.3094149 8.77590977,12.1747673 8.62805319,11.7625497 C8.81293249,11.7770784 8.97789451,11.8540689 8.99746032,11.9710609 C9.07144719,12.4136705 7.50922877,12.5996832 6.87872942,12.6446039 C5.50631105,12.7425294 3.79160821,12.7231959 2.73974104,12.4842928 C2.39716367,12.4073023 1.9833527,12.2644942 2.00051672,12.0512164 C2.03015833,11.6919656 3.36045749,11.5925147 3.77450278,11.8266131 L3.77450278,11.8268419 Z M4.74040085,11 C4.828285,11.0263247 4.70906179,11.0708216 4.71189241,11.104801 C4.96995103,11.5184662 6.24548445,11.3717822 6.89450626,11.2356778 C7.02498458,11.2068015 7.1553955,11.1230354 7.26302664,11.1308145 C7.59178348,11.1516005 7.71653315,11.4684928 8,11.5233204 C7.0956828,12.0336963 4.90457708,12.2404978 4.0030905,11.6019212 C3.96049634,11.1360422 4.36594963,11.0838284 4.74006387,11 L4.74040085,11 Z M4.68765139,10.00066 C4.80298476,10.0156592 4.60667885,10.0863955 4.6385895,10.1771707 C5.06072012,10.6063283 6.37331534,10.4851346 7.01852881,10.3537415 C7.15334692,10.325843 7.28845672,10.2425673 7.38640549,10.2525868 C7.63171495,10.2754456 7.78875968,10.5681103 8,10.6059683 C7.25409589,10.9517902 5.81397476,11.1158217 4.7612734,10.9086525 C4.48889531,10.8557353 4.0153693,10.7042432 4.00072657,10.4794949 C3.97855829,10.1739909 4.46941056,10.0454176 4.68765139,10 L4.68765139,10.00066 Z M4.95017911,9.00527798 C4.69927713,9.11635951 4.27998689,9.1373214 4.09711237,9.37554974 C4.28242058,9.50759316 4.55296593,9.50269655 4.80386791,9.51441541 C5.83221836,9.55837486 7.11900364,9.47513249 7.9962914,9.32933455 C8.02561158,9.38957936 7.874433,9.49350853 7.77685357,9.56063061 C7.22365237,9.94465689 5.50303264,10.0534827 4.31626048,9.97711756 C3.9190473,9.95153415 3.01006361,9.85228151 3.00009706,9.51441541 C2.9880445,9.10491575 4.10163209,9.06101131 4.55991933,9.02849562 C4.65002385,9.02167337 4.81841211,8.98695696 4.94983144,9.00527798 L4.95017911,9.00527798 Z M7.23501658,5.98509079 C7.03168958,6.19334745 6.66463056,6.4781451 6.64483307,6.86182721 C6.6142275,7.44529761 7.3311981,7.98492794 6.95088879,8.7247374 C6.80669446,9.00673398 6.5619538,9.12744076 6.25158524,9.3 C6.21438051,9.21512092 6.33233407,9.14372608 6.38273714,9.05337513 C6.85927992,8.18745216 5.88665666,7.89998371 6.01110547,6.83427245 C6.13118947,5.80425861 7.09944793,5.44506962 8,5.3 C7.74871214,5.52187118 7.50391953,5.71084602 7.23501658,5.98509079 Z" id="Fill-1" fill="#FFFFFF"></path>
                    </g>
                </g>
            </g>
        </g>
    </g>
</svg>